<svg xmlns="http://www.w3.org/2000/svg" width="72" height="72"><defs><clipPath id="a"><path fill="none" stroke="#707070" stroke-width="2" d="M0 0h41.347v27.565H0z" data-name="Rechteck 239"/></clipPath></defs><g data-name="Gruppe 9426" transform="translate(-798 -283)"><circle cx="36" cy="36" r="36" fill="#29b3b8" data-name="Ellipse 2" opacity=".4" transform="translate(798 283)"/><g data-name="Gruppe 9334"><g fill="none" stroke="#222" stroke-linecap="round" stroke-linejoin="round" stroke-width="2" clip-path="url(#a)" data-name="Gruppe 9333" transform="translate(813.453 304.307)"><path d="M38.101 24.112H3.245A2.569 2.569 0 0 1 .689 21.55v-5.7c0-3.532 2.577-6.06 6.2-6.7a131.5 131.5 0 0 1 13.784-.881 131.757 131.757 0 0 1 13.782.9c3.569.689 6.2 3.168 6.2 6.7v5.674a2.57 2.57 0 0 1-2.554 2.569Z" data-name="Pfad 11721"/><path d="m4.135 15.16 4.135 1.377" data-name="Linie 13"/><path d="m33.078 16.536 4.135-1.377" data-name="Linie 14"/><path d="m6.202 8.962 2.309-5.661c.7-1.4 5.651-2.6 12.163-2.6s12.321 1.184 13.031 2.6l2.129 5.661" data-name="Pfad 11722"/><path d="M2.756 24.112h8.269v2.755H2.756z" data-name="Rechteck 237"/><path d="M30.321 24.112h8.269v2.755h-8.269z" data-name="Rechteck 238"/><path d="M20.674 19.291h4.824a3.447 3.447 0 0 1 2.756 1.377s1.978 3.443 4.582 3.443" data-name="Pfad 11723"/><path d="M20.674 19.291H15.85a3.447 3.447 0 0 0-2.756 1.377s-1.978 3.443-4.582 3.443" data-name="Pfad 11724"/></g></g></g></svg>