<svg xmlns="http://www.w3.org/2000/svg" width="73.769" height="63.594"><defs><clipPath id="a"><path fill="none" d="M0 0h73.769v63.594H0z" data-name="Rechteck 262"/></clipPath></defs><g data-name="Gruppe 9368"><g clip-path="url(#a)" data-name="Gruppe 9367"><path fill="#b3b4b4" d="M53.254 10.073a5.038 5.038 0 1 0 1.926.383 4.983 4.983 0 0 0-1.926-.383M35.986 53.242a3.59 3.59 0 0 0 2.423-.938l6.23-5.678 8.7-.911 2.25 6.485a3.549 3.549 0 0 0 .47.938l5.713 8.572a3.6 3.6 0 1 0 5.983-3.99l-5.3-7.96-2.465-16.951 3.6 1.218 2.956 5.913a3.239 3.239 0 0 0 5.795-2.895l-3.01-6.02a6.081 6.081 0 0 0-2.576-2.652L60.7 25.125a7.558 7.558 0 0 0-1.9-.714l-4.83-1.1a11.623 11.623 0 0 0-6.817.516 2.9 2.9 0 0 0-.3.134l-4.416 2.266-2.843-1.427a3.241 3.241 0 0 0-2.894 5.8l4.318 2.157a3.249 3.249 0 0 0 1.448.341h.016a3.289 3.289 0 0 0 .955-.146l4.942-1.555 2.473 7.136-8.226 1.08a3.592 3.592 0 0 0-1.955.9l-7.106 6.476a3.6 3.6 0 0 0 2.425 6.256m-30.218 0h-3.6v10.071h35.972v-8.634a1.44 1.44 0 0 0-1.44-1.44H5.768ZM9.907 7.2a3.24 3.24 0 0 0-1.881.738L1.911 12.97a3.238 3.238 0 0 0 4.114 5l4.714-3.885 3.49 1.209-5.755 12.045a13.613 13.613 0 0 0-.833 2.215L2.3 48.676a3.6 3.6 0 0 0 6.88 2.1l5.486-16.6 3.79 7.2 1 8.684a3.6 3.6 0 0 0 7.148-.824l-1.068-9.271a3.536 3.536 0 0 0-.217-.936L21.2 28.08l2.685-6.071 2.389 3.017a3.233 3.233 0 0 0 1.094.9l4.657 2.33c.017.008.036.014.053.02a6.011 6.011 0 0 1 2.888-5.776c-.019-.012-.034-.025-.051-.034l-3.624-1.809-1.335-2.986a11.832 11.832 0 0 0-4.631-5.281L21.4 9.98a13.229 13.229 0 0 0-4.874-1.8l-5.934-.945a3.211 3.211 0 0 0-.685-.035M30.23 0a5.035 5.035 0 0 0-5.037 5.037 5.037 5.037 0 1 0 8.6-3.561A5.03 5.03 0 0 0 30.23 0" data-name="Pfad 11776"/></g></g></svg>