<svg xmlns="http://www.w3.org/2000/svg" width="72" height="72"><defs><clipPath id="a"><path fill="none" d="M0 0h39.68v34.807H0z" data-name="Rechteck 244"/></clipPath></defs><g data-name="Gruppe 9423" transform="translate(-596 -803)"><circle cx="36" cy="36" r="36" fill="#29b3b8" data-name="Ellipse 4" opacity=".4" transform="translate(596 803)"/><g data-name="Gruppe 9341"><g fill="none" stroke="#222" stroke-linecap="round" stroke-linejoin="round" stroke-width="2" clip-path="url(#a)" data-name="Gruppe 9340" transform="translate(612.12 823.597)"><path d="M22.644 3.519a9.52 9.52 0 0 1 13.57 0 9.782 9.782 0 0 1 0 13.724" data-name="Pfad 11726"/><path d="M22.644 3.519 19.84 6.034" data-name="Linie 15"/><path d="M17.036 3.519a9.52 9.52 0 0 0-13.57 0 9.782 9.782 0 0 0 0 13.724" data-name="Pfad 11727"/><path d="m17.036 3.519 2.804 2.515" data-name="Linie 16"/><path d="M.662 22.085h12.79l3.823-8.695" data-name="Pfad 11728"/><path d="M24.959 22.085h14.06" data-name="Linie 17"/><path d="m21.123 25.43-3.836-12.039" data-name="Linie 18"/><path d="m21.123 25.429 3.836-3.344" data-name="Linie 19"/><path d="m27.114 26.767-5.635 6.608a2.165 2.165 0 0 1-3.08.2 2.226 2.226 0 0 1-.2-.2l-5.634-6.608" data-name="Pfad 11729"/></g></g></g></svg>