<svg xmlns="http://www.w3.org/2000/svg" width="72" height="72"><defs><clipPath id="a"><path fill="none" d="M0 0h31v31H0z" data-name="Rechteck 276"/></clipPath></defs><g data-name="Gruppe 9428" transform="translate(-798 -329)"><circle cx="36" cy="36" r="36" fill="#29b3b8" data-name="Ellipse 2" opacity=".4" transform="translate(798 329)"/><g data-name="Gruppe 9376"><g clip-path="url(#a)" data-name="Gruppe 9374" transform="translate(818 349)"><path d="m15.5 23.25-9.687-9.687 2.713-2.809 5.037 5.037V0h3.875v15.791l5.038-5.037 2.712 2.809ZM3.875 31a3.739 3.739 0 0 1-2.738-1.137A3.739 3.739 0 0 1 0 27.125v-5.812h3.875v5.813h23.25v-5.813H31v5.813A3.883 3.883 0 0 1 27.125 31Z" data-name="Pfad 11782"/></g></g></g></svg>