<svg xmlns="http://www.w3.org/2000/svg" width="72" height="72"><defs><clipPath id="a"><path fill="none" d="M0 0h34.88v34.88H0z" data-name="Rechteck 248"/></clipPath></defs><g data-name="Gruppe 9425" transform="translate(-596 -1120)"><circle cx="36" cy="36" r="36" fill="#29b3b8" data-name="Ellipse 6" opacity=".4" transform="translate(596 1120)"/><g data-name="Gruppe 9345"><g fill="none" stroke="#222" stroke-linecap="round" stroke-linejoin="round" stroke-width="1.475" clip-path="url(#a)" data-name="Gruppe 9344" transform="translate(615.12 1138.245)"><path d="M34.299 17.444q0 .828-.081 1.652t-.244 1.636q-.161.812-.4 1.6a16.362 16.362 0 0 1-.557 1.558q-.317.765-.707 1.5t-.85 1.419a16.987 16.987 0 0 1-3.323 3.666c-.426.35-.87.679-1.33.985s-.932.59-1.419.851-.985.5-1.5.707-1.029.4-1.558.558-1.063.294-1.6.4-1.087.188-1.636.243-1.1.08-1.652.08-1.1-.027-1.653-.08-1.095-.136-1.636-.243A16.85 16.85 0 0 1 2.572 25.39a16.846 16.846 0 0 1-1.264-3.054q-.24-.792-.4-1.6t-.246-1.644q-.081-.824-.081-1.648t.081-1.652q.083-.824.244-1.636t.4-1.6a16.846 16.846 0 0 1 1.266-3.063q.391-.731.85-1.419a16.987 16.987 0 0 1 3.323-3.666c.426-.35.87-.679 1.33-.985s.932-.59 1.42-.851.985-.5 1.5-.708 1.029-.4 1.558-.557 1.063-.294 1.6-.4 1.085-.19 1.635-.245 1.1-.081 1.656-.081 1.1.028 1.652.081 1.095.136 1.636.243A16.925 16.925 0 0 1 25.39 2.57c.49.26.958.544 1.418.851s.9.635 1.33.985.834.72 1.226 1.111.761.8 1.11 1.226.679.869.987 1.329.589.932.85 1.419.5.985.707 1.5a16.363 16.363 0 0 1 .557 1.558q.24.792.4 1.6t.244 1.636q.08.827.08 1.659Z" data-name="Pfad 11731"/><path d="M18.887.668a22.657 22.657 0 0 1 7.854 16.771 22.648 22.648 0 0 1-7.854 16.771" data-name="Pfad 11732"/><path d="M15.993 34.211A22.637 22.637 0 0 1 8.139 17.44 22.648 22.648 0 0 1 15.993.668" data-name="Pfad 11733"/><path d="M17.44.581v33.717" data-name="Linie 20"/><path d="M3.488 26.16h27.904" data-name="Linie 21"/><path d="M3.488 8.72h27.904" data-name="Linie 22"/><path d="M.581 17.44h33.717" data-name="Linie 23"/></g></g></g></svg>