<svg xmlns="http://www.w3.org/2000/svg" width="48.141" height="48.141"><defs><clipPath id="a"><path fill="none" d="M0 0h48.141v48.141H0z" data-name="Rechteck 260"/></clipPath></defs><g data-name="Gruppe 9364"><g clip-path="url(#a)" data-name="Gruppe 9363"><path fill="#b3b4b4" d="M43.359 43.358h-2.551v-2.551h2.551Zm2.55-7.652h-7.651a2.41 2.41 0 0 0-2.551 2.551v7.652a2.41 2.41 0 0 0 2.551 2.55h7.651a2.41 2.41 0 0 0 2.551-2.55v-7.652a2.41 2.41 0 0 0-2.551-2.551m-2.55-10.2h-2.551v-2.552h2.551Zm2.55-7.652h-7.651a2.41 2.41 0 0 0-2.551 2.545v7.652a2.41 2.41 0 0 0 2.551 2.55h7.651a2.41 2.41 0 0 0 2.551-2.55v-7.652a2.41 2.41 0 0 0-2.551-2.551m-2.55-10.2h-2.551V5.099h2.551Zm2.55-7.649h-7.651a2.41 2.41 0 0 0-2.551 2.551v7.649a2.41 2.41 0 0 0 2.551 2.551h7.651a2.41 2.41 0 0 0 2.551-2.551V2.55a2.41 2.41 0 0 0-2.551-2.551m-20.4 43.359h-2.554v-2.551h2.551Zm2.55-7.652H20.4a2.41 2.41 0 0 0-2.55 2.551v7.652a2.409 2.409 0 0 0 2.55 2.55h7.652a2.41 2.41 0 0 0 2.551-2.55v-7.652a2.41 2.41 0 0 0-2.551-2.551m-2.55-10.2h-2.547v-2.552h2.551Zm2.55-7.652H20.4a2.41 2.41 0 0 0-2.55 2.551v7.652a2.409 2.409 0 0 0 2.55 2.55h7.652a2.41 2.41 0 0 0 2.551-2.55v-7.658a2.41 2.41 0 0 0-2.551-2.551m-2.55-10.2h-2.547V5.099h2.551Zm2.553-7.649H20.4a2.41 2.41 0 0 0-2.55 2.551v7.649a2.41 2.41 0 0 0 2.55 2.551h7.652a2.41 2.41 0 0 0 2.554-2.551V2.55a2.41 2.41 0 0 0-2.551-2.551M7.651 43.358H5.1v-2.551h2.551Zm2.549-7.652H2.55A2.41 2.41 0 0 0 0 38.257v7.652a2.409 2.409 0 0 0 2.55 2.55h7.65a2.41 2.41 0 0 0 2.551-2.55v-7.652a2.41 2.41 0 0 0-2.551-2.551m-2.551-10.2H5.1v-2.552h2.551Zm2.551-7.653H2.55A2.41 2.41 0 0 0 0 20.399v7.652a2.409 2.409 0 0 0 2.55 2.55h7.65a2.41 2.41 0 0 0 2.551-2.55v-7.652a2.41 2.41 0 0 0-2.551-2.546M7.651 7.651H5.1V5.099h2.551ZM10.2-.001H2.55A2.41 2.41 0 0 0 0 2.55v7.649a2.41 2.41 0 0 0 2.55 2.551h7.65a2.41 2.41 0 0 0 2.553-2.551V2.55A2.41 2.41 0 0 0 10.2-.001" data-name="Pfad 11774"/></g></g></svg>