<svg xmlns="http://www.w3.org/2000/svg" width="81" height="64.286"><defs><clipPath id="a"><path fill="none" d="M0 0h81v64.286H0z" data-name="Rechteck 261"/></clipPath></defs><g data-name="Gruppe 9366"><g clip-path="url(#a)" data-name="Gruppe 9365"><path fill="#b3b4b4" d="M3.917 55.6h73.7a4.5 4.5 0 0 1-4.526 4.526H8.446A4.5 4.5 0 0 1 3.917 55.6M1.98 51.72a1.905 1.905 0 0 0-1.939 1.941V55.6A8.387 8.387 0 0 0 8.446 64h64.651a8.387 8.387 0 0 0 8.4-8.405v-1.934a1.905 1.905 0 0 0-1.939-1.941Zm32.326-20.042a1.94 1.94 0 0 0 0 3.879h1.293a1.94 1.94 0 1 0 0-3.879Zm28.447-7.757a1.905 1.905 0 0 0-1.936 1.939v7.759a1.94 1.94 0 0 0 3.879 0V25.86a1.9 1.9 0 0 0-1.939-1.939m-2.591-9.051a15 15 0 0 0-13.706 9.051H26.547a5.818 5.818 0 0 0 0 11.637 1.94 1.94 0 1 0 0-3.879 1.939 1.939 0 1 1 0-3.878h21.336a1.614 1.614 0 0 0 .646-.13 1.994 1.994 0 0 0 1.164-1.227 11.037 11.037 0 0 1 11.571-7.63 11.158 11.158 0 0 1 7.435 3.945A11.008 11.008 0 1 1 49.694 33.1a2.167 2.167 0 0 0-.97-1.164 1.444 1.444 0 0 0-.84-.259h-4.526a1.94 1.94 0 1 0 0 3.879h3.1a14.9 14.9 0 0 0 23.145 5.69 14.635 14.635 0 0 0 5.367-10.02 14.908 14.908 0 0 0-3.3-10.927 14.623 14.623 0 0 0-10.02-5.366 11.375 11.375 0 0 0-1.488-.065M14.911 0a8.388 8.388 0 0 0-8.405 8.405v38.143a1.94 1.94 0 1 0 3.879 0V8.405a4.5 4.5 0 0 1 4.526-4.526h51.72a4.5 4.5 0 0 1 4.526 4.526 1.94 1.94 0 0 0 3.879 0A8.387 8.387 0 0 0 66.631 0Z" data-name="Pfad 11775"/></g></g></svg>