<svg xmlns="http://www.w3.org/2000/svg" width="66" height="63.462"><defs><clipPath id="a"><path fill="none" d="M0 0h66v63.462H0z" data-name="Rechteck 259"/></clipPath></defs><g data-name="Gruppe 9362"><g clip-path="url(#a)" data-name="Gruppe 9361"><path fill="#b3b4b4" d="m40.765 51.664 1.352 5.2h-2.691Zm12.662-1.117h1.579a1.58 1.58 0 1 1 0 3.16h-1.58Zm9.477 12.636h3.16v-15.8h-3.16Zm-12.636-15.8v15.8h3.16v-6.318h1.579a4.739 4.739 0 1 0 0-9.477Zm-11.543 0-4.253 15.8h3.325l.816-3.16h4.318l.822 3.16h3.358l-4.276-15.8Zm-7.414-22.11a6.319 6.319 0 1 1-6.317 6.319 6.292 6.292 0 0 1 6.317-6.319m0-6.317a12.636 12.636 0 1 0 12.638 12.636 12.689 12.689 0 0 0-12.638-12.636M23.945 0l-1.556 7.972a25.012 25.012 0 0 0-7.087 4.072L7.643 9.409.271 22.183l6.126 5.331a25.283 25.283 0 0 0-.359 4.078 25.99 25.99 0 0 0 .359 4.085L.271 41.008l7.372 12.767 7.651-2.635a25.2 25.2 0 0 0 7.1 4.078l1.555 7.966h4.209V51.751l-.235-1.2-3.3-1.251a18.794 18.794 0 0 1-5.319-3.048l-2.726-2.239-6.067 2.092-2.164-3.752 4.852-4.221-.564-3.462a19.479 19.479 0 0 1-.278-3.078 19.318 19.318 0 0 1 .278-3.073l.564-3.468-4.857-4.22 2.169-3.752 6.06 2.091 2.733-2.239a18.692 18.692 0 0 1 5.326-3.048l3.288-1.247 1.234-6.317h4.326l1.233 6.317 3.295 1.247a18.822 18.822 0 0 1 5.324 3.048l2.728 2.239 6.067-2.092 2.164 3.752-4.848 4.214.553 3.469v.012a19.188 19.188 0 0 1 .278 3.066 19.317 19.317 0 0 1-.278 3.073l-.562 3.468 3.376 2.936h9.514l.035-.068-6.13-5.331a25.3 25.3 0 0 0 .36-4.078 25.216 25.216 0 0 0-.36-4.085l6.13-5.331-7.375-12.766-7.649 2.635a25.192 25.192 0 0 0-7.1-4.078L38.68 0Z" data-name="Pfad 11773"/></g></g></svg>