<svg xmlns="http://www.w3.org/2000/svg" width="72" height="72"><defs><clipPath id="a"><path fill="none" d="M0 0h43.062v44.125H0z" data-name="Rechteck 245"/></clipPath></defs><g data-name="Gruppe 9424" transform="translate(-1001 -803)"><circle cx="36" cy="36" r="36" fill="#29b3b8" data-name="Ellipse 5" opacity=".4" transform="translate(1001 803)"/><g data-name="Gruppe 9343"><g clip-path="url(#a)" data-name="Gruppe 9342" transform="translate(1014.596 816.938)"><path fill="#3f4440" d="M35.132 31.879a.767.767 0 0 1-.06.3.754.754 0 0 1-.168.252.777.777 0 0 1-.252.169.764.764 0 0 1-.3.06H27.63a.778.778 0 0 1 0-1.557h6.725a.776.776 0 0 1 .719.483.786.786 0 0 1 .058.3Zm0-3.562a.778.778 0 0 1-.777.777H13.388a.778.778 0 0 1 0-1.557h20.967a.768.768 0 0 1 .3.06.777.777 0 0 1 .253.17.763.763 0 0 1 .168.254.782.782 0 0 1 .058.3Zm0-3.563a.77.77 0 0 1-.06.3.761.761 0 0 1-.168.252.775.775 0 0 1-.549.228H13.388a.782.782 0 0 1-.3-.059.779.779 0 0 1-.481-.719.765.765 0 0 1 .06-.3.773.773 0 0 1 .169-.253.76.76 0 0 1 .253-.168.77.77 0 0 1 .3-.06h20.966a.771.771 0 0 1 .3.06.779.779 0 0 1 .252.169.785.785 0 0 1 .227.551Zm0-3.563a.78.78 0 0 1-.478.722.771.771 0 0 1-.3.06H13.388a.779.779 0 0 1-.719-.481.783.783 0 0 1 0-.6.779.779 0 0 1 .719-.481h20.967a.78.78 0 0 1 .549.228.777.777 0 0 1 .169.252.765.765 0 0 1 .06.3Zm0-3.563a.783.783 0 0 1-.228.55.775.775 0 0 1-.252.168.764.764 0 0 1-.3.06H13.388a.777.777 0 0 1-.778-.778.778.778 0 0 1 .48-.719.77.77 0 0 1 .3-.06h20.965a.778.778 0 0 1 .719.483.786.786 0 0 1 .058.3Zm-22.522-4.3a.78.78 0 0 1 .48-.718.78.78 0 0 1 .3-.059h11.915a.777.777 0 0 1 .778.778.778.778 0 0 1-.48.719.769.769 0 0 1-.3.059H13.388a.763.763 0 0 1-.3-.059.777.777 0 0 1-.252-.169.754.754 0 0 1-.168-.252.77.77 0 0 1-.06-.3Zm0-3.2a.764.764 0 0 1 .06-.3.776.776 0 0 1 .42-.42.766.766 0 0 1 .3-.059h6.6a.776.776 0 0 1 .537.234.776.776 0 0 1 .221.543.78.78 0 0 1-.466.712.781.781 0 0 1-.292.065h-6.6a.773.773 0 0 1-.3-.059.786.786 0 0 1-.252-.168.784.784 0 0 1-.228-.548ZM40.573 30.91l-.647-2.628 1.129 2.406Zm-1.562 4.614v-4.449l1.034 4.2Zm-28.726 3.421V3.449h20.321v6.076a.777.777 0 0 0 .059.3.781.781 0 0 0 .421.42.776.776 0 0 0 .3.059h6.069v28.645Zm3.428 1.553h5.075l-4.785 1.18ZM4.398 9.14l3.357 13.648-5.835-12.49Zm4.333-2.25v13.358l-3.1-12.6Zm11.766-5.273.768.279h-1.367Zm11.658 2.931 4.2 4.2h-4.2Zm10.632 26.188-3.776-8.079V9.525a.746.746 0 0 0-.227-.549l-6.852-6.854a.748.748 0 0 0-.549-.228h-4.254l-1.054-.636a.753.753 0 0 0-.588-.089l-1 .245L20.725.047a.75.75 0 0 0-.594.026L16.23 1.898H9.508a.78.78 0 0 0-.718.48.78.78 0 0 0-.059.3V5.29L4.51 6.329a.776.776 0 0 0-.275.128.781.781 0 0 0-.308.509.778.778 0 0 0 .013.3l.082.33L.555 9.219a.774.774 0 0 0-.242.179.787.787 0 0 0-.158.26.772.772 0 0 0-.045.3.759.759 0 0 0 .072.295l8.549 18.293v11.179a.763.763 0 0 0 .059.3.77.77 0 0 0 .42.42.763.763 0 0 0 .3.059h2.606l.566 2.3a.77.77 0 0 0 .128.275.781.781 0 0 0 .509.308.778.778 0 0 0 .3-.013l1.83-.45.225.483a.778.778 0 0 0 1.033.377l5.273-2.465 3.312-.814h12.943a.783.783 0 0 0 .549-.228.779.779 0 0 0 .171-.253.763.763 0 0 0 .059-.3v-2.6l2.16-.532a.761.761 0 0 0 .274-.128.77.77 0 0 0 .308-.508.768.768 0 0 0-.013-.3l-.788-3.207 1.462-.683a.774.774 0 0 0 .245-.179.778.778 0 0 0 .133-.853Z" data-name="Pfad 11730"/></g></g></g></svg>