<svg xmlns="http://www.w3.org/2000/svg" width="72" height="72"><defs><clipPath id="a"><path fill="none" d="M0 0h37.707v35.274H0z" data-name="Rechteck 241"/></clipPath></defs><g data-name="Gruppe 9422" transform="translate(-1001 -1120)"><circle cx="36" cy="36" r="36" fill="#29b3b8" data-name="Ellipse 7" opacity=".4" transform="translate(1001 1120)"/><g data-name="Gruppe 9346"><g clip-path="url(#a)" data-name="Gruppe 9336" transform="translate(1019.293 1135.048)"><path fill="#3f4440" d="m13.355 17.046 8.081 6.829v8.45H5.275v-8.45Zm0-3.531L.029 24.785l1.737 2.057.815-.689v8.863h21.55v-8.863l.815.689 1.736-2.057ZM18.743-.084.024 15.81l1.747 2.052 16.972-14.41 13.468 11.437v17.436h-5.387v2.691h6.735a1.342 1.342 0 0 0 .516-.1 1.35 1.35 0 0 0 .831-1.245v-16.5l.81.689 1.747-2.052Z" data-name="Pfad 11725"/></g></g></g></svg>