<svg xmlns="http://www.w3.org/2000/svg" width="278.557" height="239.273" data-name="Gruppe 9358"><defs><clipPath id="a"><path fill="none" d="M0 0h278.557v239.273H0z" data-name="Rechteck 253"/></clipPath></defs><g clip-path="url(#a)" data-name="Gruppe 9357"><path fill="#e6e7e9" d="M259.167 141.439a51.241 51.241 0 0 0-27.209-71.822v-.073A69.5 69.5 0 0 0 95.149 52.181 49.595 49.595 0 0 0 30.317 93.56a38.082 38.082 0 0 0 7.915 75.332c.587 0 1.166-.039 1.742-.073-.013.58-.086 1.147-.086 1.729a67.867 67.867 0 0 0 120.655 42.674 39.655 39.655 0 0 0 63.688-9.617 36.4 36.4 0 0 0 34.934-62.166" data-name="Pfad 11737"/><path fill="#a2e7eb" d="M210.435 74.511v1.656H200.5v-1.656h-18.213a14.862 14.862 0 0 1-1.475-29.655 14.747 14.747 0 0 1-.182-1.806 14.849 14.849 0 0 1 26.582-9.153 16.524 16.524 0 0 1 33.027.874 16.324 16.324 0 0 1-.62 4.245 11.5 11.5 0 0 1 20.341 5.872 14.721 14.721 0 0 1 1.8-.182 14.9 14.9 0 1 1 0 29.8h-51.33Z" data-name="Pfad 11738"/><path fill="#626266" d="M223.682 16.559a18.234 18.234 0 0 1 18.214 18.213v.154a13.031 13.031 0 0 1 6.623-1.81 13.239 13.239 0 0 1 12.776 9.951c.156-.01.312-.017.47-.017a16.558 16.558 0 1 1 0 33.116h-51.329a1.656 1.656 0 0 1 0-3.312h51.33a13.246 13.246 0 1 0 0-26.492 8.642 8.642 0 0 0-1.135.105l-.467.063a1.447 1.447 0 0 1-.2.013 1.664 1.664 0 0 1-1.641-1.447 9.844 9.844 0 0 0-17.419-5.027 1.661 1.661 0 0 1-1.279.6 1.607 1.607 0 0 1-.755-.187 1.654 1.654 0 0 1-.841-1.9 14.755 14.755 0 0 0 .56-3.817 14.869 14.869 0 0 0-29.718-.786 1.654 1.654 0 0 1-1.156 1.49 1.639 1.639 0 0 1-1.8-.556 13.191 13.191 0 0 0-23.622 8.13 8.413 8.413 0 0 0 .107 1.135l.063.467a1.659 1.659 0 0 1-1.478 1.848 13.207 13.207 0 0 0 1.301 26.366H200.5a1.656 1.656 0 0 1 0 3.312h-18.214a16.517 16.517 0 0 1-3.3-32.709 7.897 7.897 0 0 1-.01-.407 16.576 16.576 0 0 1 16.56-16.562 16.333 16.333 0 0 1 10.541 3.855 18.169 18.169 0 0 1 17.605-13.789" data-name="Pfad 11739"/><path fill="#626266" d="M228.65 39.74a9.964 9.964 0 0 1 9.647 7.752 7.759 7.759 0 0 1 4.014-1.128 7.87 7.87 0 0 1 7.792 6.847 8.759 8.759 0 0 1 1.938-.225 9.738 9.738 0 0 1 9.664 9.048.836.836 0 0 1-.769.887h-.059a.827.827 0 0 1-.825-.768 7.916 7.916 0 0 0-10.455-7.09.758.758 0 0 1-.222.032.881.881 0 0 1-.516-.178.864.864 0 0 1-.338-.689 6.174 6.174 0 0 0-10.285-4.642.839.839 0 0 1-.546.208.76.76 0 0 1-.309-.063.816.816 0 0 1-.512-.7 8.311 8.311 0 0 0-8.217-7.633 8.162 8.162 0 0 0-2.258.354.786.786 0 0 1-.233.034.829.829 0 0 1-.222-1.627 9.74 9.74 0 0 1 2.713-.417" data-name="Pfad 11740"/><path fill="#626266" d="M182.675 44.707a9.958 9.958 0 0 1 9.518 7.226.826.826 0 0 1-.57 1.023.956.956 0 0 1-.229.029.825.825 0 0 1-.794-.6 8.3 8.3 0 0 0-7.925-6.021 8.561 8.561 0 0 0-1.133.1.642.642 0 0 1-.117.01.828.828 0 0 1-.105-1.649 10.246 10.246 0 0 1 1.354-.112" data-name="Pfad 11741"/><path fill="#fff" d="M74.66 221.879H41.544a1.656 1.656 0 0 1 0-3.312H74.66a1.656 1.656 0 0 1 0 3.312" data-name="Pfad 11742"/><path fill="#fff" d="M84.594 221.879h-3.312a1.656 1.656 0 0 1 0-3.312h3.312a1.656 1.656 0 0 1 0 3.312" data-name="Pfad 11743"/><path fill="#fff" d="M101.123 228.501H71.349a1.656 1.656 0 0 1 0-3.312h29.774a1.656 1.656 0 1 1 0 3.312" data-name="Pfad 11744"/><path fill="#fff" d="M64.725 228.501h-3.312a1.656 1.656 0 1 1 0-3.312h3.312a1.656 1.656 0 0 1 0 3.312" data-name="Pfad 11745"/><path fill="#fff" d="M54.791 228.501h-6.622a1.656 1.656 0 1 1 0-3.312h6.623a1.656 1.656 0 1 1 0 3.312" data-name="Pfad 11746"/><path fill="#fff" d="M74.66 235.125h-6.624a1.656 1.656 0 0 1 0-3.312h6.624a1.656 1.656 0 0 1 0 3.312" data-name="Pfad 11747"/><path fill="#fff" d="M84.594 205.316h-3.312a1.656 1.656 0 1 0 0 3.312h3.312a1.656 1.656 0 1 0 0-3.312" data-name="Pfad 11748"/><path fill="#fff" d="M84.594 211.944H68.036a1.656 1.656 0 0 0 0 3.312h16.558a1.656 1.656 0 0 0 0-3.312" data-name="Pfad 11749"/><path fill="#fff" d="M101.153 218.567h-9.935a1.656 1.656 0 0 0 0 3.312h9.935a1.656 1.656 0 0 0 0-3.312" data-name="Pfad 11750"/><path fill="#fff" d="M130.958 29.805H97.842a1.656 1.656 0 1 1 0-3.312h33.116a1.656 1.656 0 1 1 0 3.312" data-name="Pfad 11751"/><path fill="#fff" d="M144.205 29.805h-6.623a1.656 1.656 0 0 1 0-3.312h6.623a1.656 1.656 0 1 1 0 3.312" data-name="Pfad 11752"/><path fill="#fff" d="M160.762 36.429h-33.116a1.656 1.656 0 0 1 0-3.312h33.116a1.656 1.656 0 0 1 0 3.312" data-name="Pfad 11753"/><path fill="#fff" d="M121.023 36.429h-3.312a1.656 1.656 0 0 1 0-3.312h3.312a1.656 1.656 0 0 1 0 3.312" data-name="Pfad 11754"/><path fill="#fff" d="M110.989 36.429h-6.525a1.656 1.656 0 1 1 0-3.312h6.524a1.656 1.656 0 0 1 0 3.312" data-name="Pfad 11755"/><path fill="#fff" d="M140.892 23.181h-16.558a1.655 1.655 0 1 1 0-3.311h16.558a1.655 1.655 0 1 1 0 3.311" data-name="Pfad 11756"/><path fill="#fff" d="M130.962 43.052h-6.627a1.656 1.656 0 1 1 0-3.312h6.627a1.656 1.656 0 1 1 0 3.312" data-name="Pfad 11757"/><path fill="#85cfcc" d="M213.828 192.074H81.199a18.13 18.13 0 0 1-18.13-18.132v-96.2a18.129 18.129 0 0 1 18.13-18.13h132.629a18.13 18.13 0 0 1 18.134 18.13v96.2a18.131 18.131 0 0 1-18.134 18.132" data-name="Pfad 11758"/><path fill="#626266" d="M175.664 178.827H86.251a9.946 9.946 0 0 1-9.935-9.935V82.791a9.948 9.948 0 0 1 9.935-9.936h8.831a1.656 1.656 0 0 1 0 3.312h-8.831a6.63 6.63 0 0 0-6.623 6.624v86.1a6.628 6.628 0 0 0 6.623 6.623h89.414a1.656 1.656 0 1 1 0 3.312" data-name="Pfad 11759"/><path fill="#626266" d="M208.781 178.827H187.25a1.656 1.656 0 0 1 0-3.312h21.526a6.628 6.628 0 0 0 6.621-6.623V82.791a6.629 6.629 0 0 0-6.621-6.624h-54.913a1.656 1.656 0 0 1 0-3.312h54.918a9.946 9.946 0 0 1 9.933 9.936v86.1a9.945 9.945 0 0 1-9.933 9.935" data-name="Pfad 11760"/><path fill="#626266" d="M141.165 76.167h-34.216a1.656 1.656 0 1 1 0-3.312h34.216a1.656 1.656 0 1 1 0 3.312" data-name="Pfad 11761"/><path fill="#626266" d="M213.828 59.609H81.199a18.131 18.131 0 0 0-18.13 18.134v96.2a18.131 18.131 0 0 0 18.13 18.132h132.629a18.132 18.132 0 0 0 18.134-18.135v-96.2a18.131 18.131 0 0 0-18.134-18.131m0 4.637a13.513 13.513 0 0 1 13.495 13.5v96.2a13.513 13.513 0 0 1-13.495 13.5H81.199a13.512 13.512 0 0 1-13.493-13.5v-96.2a13.512 13.512 0 0 1 13.493-13.5h132.629" data-name="Pfad 11762"/><path fill="#626266" d="M109.283 135.799h14.828l-7.49-25.636Zm-12.528 15.316a2.3 2.3 0 0 1 .073-.672l14.832-48.41q.954-2.682 5.312-2.685c2.961 0 4.752.834 5.392 2.5l14.789 48.4a2.672 2.672 0 0 1 .146.706 2.875 2.875 0 0 1-1.739 2.424 7.207 7.207 0 0 1-3.7 1.017q-2.356 0-2.925-1.627l-3.093-10.7h-18.351l-3.057 10.67c-.348 1.1-1.271 1.652-2.758 1.652a6.242 6.242 0 0 1-3.355-.97 2.753 2.753 0 0 1-1.566-2.311" data-name="Pfad 11763"/><path fill="#626266" d="M150.513 127.061h9.26a8.656 8.656 0 0 0 6.576-2.428c1.537-1.615 2.316-4.046 2.316-7.282v-.9c0-3.236-.779-5.65-2.316-7.246a8.738 8.738 0 0 0-6.576-2.391h-9.26Zm-7.918 24.724v-49.449a2.3 2.3 0 0 1 .857-1.791 3.247 3.247 0 0 1 2.206-.749h14.564q7.467 0 11.915 3.958t4.45 12.474v.6q0 8.515-4.6 12.511t-12.214 4h-9.26v18.446a2.149 2.149 0 0 1-1.162 1.9 5.807 5.807 0 0 1-5.56 0 2.13 2.13 0 0 1-1.2-1.9" data-name="Pfad 11764"/><path fill="#626266" d="M183.301 151.785v-49.449a2.05 2.05 0 0 1 1.156-1.9 6.489 6.489 0 0 1 5.6 0 2.055 2.055 0 0 1 1.162 1.9v49.449a2.149 2.149 0 0 1-1.162 1.9 5.807 5.807 0 0 1-5.56 0 2.128 2.128 0 0 1-1.2-1.9" data-name="Pfad 11765"/><path fill="#a2e7eb" d="M24.986 167.236h-11.59a11.561 11.561 0 0 1-1.477-23.032 11.53 11.53 0 0 1 19.986-9.537 13.243 13.243 0 0 1 26.194 2.765 12.946 12.946 0 0 1-.185 1.848 8.213 8.213 0 0 1 13.283 4.958 11.572 11.572 0 1 1 1.8 23h-24.83v1.657H24.986Z" data-name="Pfad 11766"/><path fill="#626266" d="M19.191 152.337a.827.827 0 0 0 .827-.828 7.352 7.352 0 0 0-7.344-7.345 21.049 21.049 0 0 0-4.119.45.828.828 0 1 0 .429 1.6 16.608 16.608 0 0 1 3.687-.392 5.7 5.7 0 0 1 5.692 5.689.828.828 0 0 0 .828.828" data-name="Pfad 11767"/><path fill="#626266" d="M43.2 167.237a1.658 1.658 0 1 1-.486-1.17 1.59 1.59 0 0 1 .486 1.17" data-name="Pfad 11768"/><path fill="#626266" d="M13.396 168.892h11.59a1.656 1.656 0 1 0 0-3.312h-11.59a9.905 9.905 0 0 1-1.264-19.733 1.664 1.664 0 0 0 1.111-.65 1.646 1.646 0 0 0 .312-1.249 10.442 10.442 0 0 1-.159-1.549 9.946 9.946 0 0 1 9.935-9.935 9.794 9.794 0 0 1 7.348 3.312 1.656 1.656 0 0 0 2.849-.765 11.587 11.587 0 0 1 22.92 2.421 9.608 9.608 0 0 1-.136 1.384 1.815 1.815 0 0 0 .8 1.788 1.624 1.624 0 0 0 1.841-.032 6.521 6.521 0 0 1 4.116-1.485 6.6 6.6 0 0 1 6.5 5.445 1.649 1.649 0 0 0 1.885 1.34 10.1 10.1 0 0 1 1.549-.161 9.935 9.935 0 1 1 0 19.869H48.167a1.656 1.656 0 1 0 0 3.312h24.837a13.246 13.246 0 1 0 0-26.493c-.2 0-.383.007-.575.02a9.912 9.912 0 0 0-9.359-6.642 9.657 9.657 0 0 0-3.348.6 14.9 14.9 0 0 0-28.619-4.658 13.2 13.2 0 0 0-21.02 10.683c0 .159 0 .314.014.47a13.217 13.217 0 0 0 3.3 26.023" data-name="Pfad 11769"/><path fill="#626266" d="M31.61 165.581h3.311a1.656 1.656 0 1 1 0 3.312H31.61a1.656 1.656 0 1 1 0-3.312" data-name="Pfad 11770"/></g></svg>