<svg xmlns="http://www.w3.org/2000/svg" xmlns:xlink="http://www.w3.org/1999/xlink" id="Layer_1" x="0px" y="0px" viewBox="0 0 800 500" style="enable-background:new 0 0 800 500;" xml:space="preserve"><style type="text/css">	.st0{fill:none;}	.st1{fill:#FFFFFF;}</style><g>	<path class="st0" d="M58,143.9c0.7,0.5,1.3,1.2,1.5,2l66.9-15.7c-0.1-0.8,0-1.6,0.3-2.3l-45.5-27L58,143.9z"></path>	<path class="st0" d="M109.1,50l-27.5,50.7l45.5,27c0.5-0.7,1.1-1.2,2-1.4l-17.8-75.9C110.4,50.4,109.7,50.3,109.1,50z"></path>	<path class="st0" d="M-12.4,71.7c0.1,0.5,0.1,0.9,0.1,1.3l68.5,14.2c0.2-0.8,0.7-1.5,1.3-2L34.4,50l-46.9,21.3  C-12.5,71.4-12.4,71.6-12.4,71.7z"></path>	<path class="st0" d="M95.6,193.5l32.5-60.8c-0.5-0.3-0.9-0.7-1.2-1.2l-55.7,29.6L95.6,193.5z"></path>	<path class="st0" d="M-13.2,75l53.7,55.6L58,91.4c-0.9-0.5-1.6-1.3-1.9-2.4C56,88.6,56,88.1,56,87.7l-68.5-14.2  C-12.6,74.1-12.8,74.6-13.2,75z"></path>	<path class="st0" d="M70.9,160.8l55.8-29.6c-0.1-0.1-0.1-0.3-0.2-0.4L60,146.3L70.9,160.8z"></path>	<path class="st0" d="M198.9,46.2c0-0.1,0-0.2,0-0.3l-84.7,0.9c0,0.8-0.4,1.6-0.9,2.3L158.8,96l41.3-47.9  C199.6,47.7,199.1,47,198.9,46.2z"></path>	<path class="st0" d="M132.3,126.7l26.2-30.3l-45.5-47c-0.4,0.3-0.8,0.6-1.3,0.7l17.8,75.9C130.5,125.9,131.5,126.2,132.3,126.7z"></path>	<path class="st0" d="M257.7,80.4L255,60.7l-3-22c-0.3,0.2-0.6,0.3-0.9,0.4c-0.5,0.1-1.1,0.1-1.6,0l-17,26.9l23,15.7  c0.5-0.6,1.2-1.1,2-1.3C257.6,80.4,257.6,80.4,257.7,80.4z"></path>	<path class="st0" d="M132.6,127.1c0.5,0.5,0.8,1.1,1,1.8c0.1,0.2,0.1,0.4,0.1,0.6l54.3,0.6c0.1-0.8,0.4-1.6,0.9-2.2l-30.2-31.1  L132.6,127.1z"></path>	<path class="st0" d="M193.8,127.4c0.3,0.2,0.5,0.4,0.7,0.7l60.7-42.2c-0.2-0.3-0.3-0.6-0.4-1c-0.2-1,0-2,0.4-2.8l-23-15.7  L193.8,127.4z"></path>	<path class="st0" d="M205.5,47.4l26.7,18.3L249.1,39c-1.1-0.4-2-1.3-2.3-2.5l-40.6,8.8C206.2,46,206,46.8,205.5,47.4z"></path>	<path class="st0" d="M206.1,44.7l40.5-8.8c-0.2-1.4,0.5-2.8,1.6-3.5L226.6-5.7l-22.4,47.9c0.9,0.5,1.6,1.3,1.8,2.4  C206.1,44.6,206.1,44.7,206.1,44.7z"></path>	<path class="st0" d="M201.9,49c-0.5-0.1-1-0.3-1.4-0.6l-41.4,47.9l30.2,31.2c0.4-0.4,0.9-0.6,1.5-0.8c0.4-0.1,0.7-0.1,1.1-0.1  l6.9-53.9L201.9,49z"></path>	<path class="st0" d="M205.3,47.8c-0.5,0.6-1.1,1-1.9,1.1c-0.3,0.1-0.6,0.1-1,0.1l-9.4,73.4l-0.6,4.3c0.4,0.1,0.7,0.2,1,0.4l38.5-61  L205.3,47.8z"></path>	<path class="st0" d="M284,68l-30.5-30.9c-0.2,0.5-0.6,0.9-1,1.2l2.3,17.4l3.3,24.5c1.3-0.1,2.5,0.5,3.2,1.5L284,68z"></path>	<path class="st0" d="M14.7,188.2l25.5-57.2l-53.8-55.7c-0.4,0.3-0.8,0.5-1.3,0.7l27.7,112C13.5,187.9,14.1,188,14.7,188.2z"></path>	<path class="st0" d="M15.5,20.1l19.1,29.3l24.6-11.2c-0.1-0.1-0.1-0.3-0.1-0.5c-0.2-0.7-0.1-1.4,0.1-2l-42.5-17  C16.3,19.3,15.9,19.7,15.5,20.1z"></path>	<path class="st0" d="M34.2,49.6L15.1,20.3c-0.3,0.2-0.6,0.3-1,0.4c-0.8,0.2-1.6,0.1-2.3-0.2l-25.8,49c0.5,0.3,1,0.8,1.3,1.4  L34.2,49.6z"></path>	<path class="st0" d="M11.5,188.5c0.2-0.1,0.5-0.3,0.8-0.4l0.1-0.2L-15.3,76.2c-0.9,0.2-1.8,0-2.5-0.4l-24.7,36.6L11.5,188.5z"></path>	<path class="st0" d="M16.7,190.1c0.1,0.2,0.2,0.4,0.2,0.7c0.1,0.2,0.1,0.5,0.1,0.7l78.1,2.2l-24.4-32.3L16.7,190.1z"></path>	<path class="st0" d="M70.5,161l-10.8-14.3c0.2,1.8-1,3.5-2.8,3.9c-1.2,0.3-2.3,0-3.2-0.8l-37.6,39.3c0.1,0.2,0.3,0.3,0.4,0.5  L70.5,161z"></path>	<path class="st0" d="M-19.6,72.5l-23.8-2.2l-3.3,32.1c0.6,0.1,1.2,0.4,1.7,0.8l26.3-28c-0.4-0.5-0.7-1-0.9-1.7  C-19.6,73.1-19.6,72.8-19.6,72.5z"></path>	<path class="st0" d="M108.6,49.7c-0.3-0.2-0.5-0.4-0.7-0.6L62.7,86.1c0.3,0.4,0.5,0.8,0.6,1.3c0.2,0.8,0.1,1.6-0.2,2.3l18.1,10.7  L108.6,49.7z"></path>	<path class="st0" d="M107,47.5c-0.1-0.5-0.1-0.9-0.1-1.4l-26.6-5.6l-19,44.4c0.3,0.2,0.6,0.4,0.9,0.6l45.4-36.8  C107.3,48.4,107.1,48,107,47.5z"></path>	<path class="st0" d="M63.4,40.5c-0.2,0.1-0.4,0.1-0.6,0.1l-3.1,44c0.4,0,0.8,0.1,1.2,0.2l19-44.4l-13.7-2.9  C66,38.9,64.9,40.1,63.4,40.5z"></path>	<path class="st0" d="M15.9,188.7l37.4-39.2c-0.4-0.4-0.7-1-0.9-1.6c-0.3-1.2,0.1-2.4,0.9-3.3l-12.7-13.1l-25.5,57  c0.2,0.1,0.4,0.3,0.6,0.4L15.9,188.7z"></path>	<path class="st0" d="M59.2,91.8c-0.3,0-0.5-0.1-0.8-0.2L40.8,131l12.8,13.3c0.4-0.4,0.9-0.6,1.5-0.8c0.3-0.1,0.6-0.1,0.8-0.1  L59.2,91.8z"></path>	<path class="st0" d="M80.9,100.8L62.8,90.1c-0.5,0.8-1.3,1.4-2.3,1.7c-0.3,0.1-0.6,0.1-0.8,0.1l-3.2,51.5c0.4,0,0.7,0.2,1.1,0.3  L80.9,100.8z"></path>	<path class="st0" d="M34.9,49.8l23,35.3c0.3-0.2,0.6-0.3,1-0.4c0.1,0,0.3-0.1,0.4-0.1l3.1-44c-1.2-0.1-2.4-0.8-2.9-1.9L34.9,49.8z"></path>	<path class="st0" d="M-35.8,27.6c0.2,1.4-0.5,2.7-1.6,3.5l18.6,35.4L-35.8,27.6z"></path>	<path class="st0" d="M-36.6,25.7l-19.3-44.3l15.6,43.1c0,0,0,0,0,0C-38.9,24.2-37.5,24.7-36.6,25.7z"></path>	<path class="st0" d="M-39.9,31.7c-0.7-0.1-1.4-0.4-2-0.9l-35.3,33.5c0.4,0.4,0.6,0.9,0.8,1.5c0.1,0.3,0.1,0.6,0.1,0.9l32.5,3  L-39.9,31.7z"></path>	<path class="st0" d="M61.7,33.3c0.8-0.2,1.6-0.1,2.3,0.2l42.1-78.8c-0.8-0.5-1.4-1.3-1.6-2.3c-0.1-0.6-0.1-1.1,0-1.7L6.9-78.3  c-0.3,0.8-0.8,1.5-1.6,2L61.1,33.5C61.3,33.5,61.5,33.4,61.7,33.3z"></path>	<path class="st0" d="M16.8,16.3c0.2,0.7,0.1,1.4-0.1,2l42.5,17c0.3-0.6,0.8-1.2,1.4-1.6L4.9-76.1c-0.2,0.1-0.4,0.2-0.6,0.2  c-0.1,0-0.2,0-0.3,0.1l9.1,89.3C14.9,13.4,16.4,14.6,16.8,16.3z"></path>	<path class="st0" d="M12.4,13.6c0.1,0,0.2,0,0.2,0L3.6-75.8c-1.7,0-3.2-1.1-3.6-2.8c0,0,0-0.1,0-0.1l-47.4,8.6c0.2,1.8-1,3.6-2.8,4  c-0.4,0.1-0.8,0.1-1.2,0.1l-6.3,36.8c1.3,0.3,2.5,1.3,2.8,2.7c0.2,0.9,0.1,1.8-0.4,2.6l65.7,39C10.8,14.4,11.5,13.8,12.4,13.6z"></path>	<path class="st0" d="M-16.8,69c0.8-0.2,1.6-0.1,2.3,0.2l25.8-49C10.6,19.8,9.9,19,9.7,18c-0.2-0.9-0.1-1.8,0.3-2.5l-65.7-39  c-0.4,0.5-0.8,0.9-1.4,1.1l39.9,91.5C-17.1,69.1-16.9,69-16.8,69z"></path>	<path class="st0" d="M-19.6,72c0.2-1.1,0.8-2,1.7-2.6l-19.9-38.1c-0.2,0.1-0.5,0.2-0.8,0.3c-0.3,0.1-0.6,0.1-0.9,0.1l-3.9,38  L-19.6,72z"></path>	<path class="st0" d="M261.6,82.3c0.2,0.3,0.3,0.6,0.4,0.9c0.2,0.7,0.1,1.3-0.1,1.9l61.8,24.6c0.1-0.3,0.3-0.6,0.6-0.9l-39.9-40.5  L261.6,82.3z"></path>	<path class="st0" d="M17,192c-0.1,1.5-1.2,2.9-2.8,3.2c-1.6,0.4-3.2-0.4-4-1.7l-22.6,46.7c0.6,0.3,1.1,0.8,1.4,1.5l105.6-47.4  L17,192z"></path>	<path class="st0" d="M-18.2,75.5C-18.2,75.4-18.2,75.4-18.2,75.5l-26.4,28c0.4,0.5,0.7,1,0.9,1.7c0.3,1.4-0.2,2.8-1.3,3.7l2.2,3.1  L-18.2,75.5z"></path>	<path class="st0" d="M-47.1,102.3l3.3-32.1l-32.5-3c-0.1,0.8-0.5,1.5-1.1,2.1l3.3,3.9l24.8,29.8c0.4-0.3,0.8-0.5,1.3-0.6  C-47.8,102.3-47.5,102.3-47.1,102.3z"></path>	<path class="st0" d="M11.1,188.8l-53.8-76.1l-34.5,51.2c0.6,0.5,1.1,1.2,1.3,2.1c0.1,0.5,0.1,1.1,0,1.5l85.9,22.9  C10.1,189.8,10.5,189.2,11.1,188.8z"></path>	<path class="st0" d="M-45.4,109.1c-0.3,0.2-0.7,0.4-1.1,0.4c-0.8,0.2-1.6,0.1-2.3-0.2L-77.2,163l34.2-50.7L-45.4,109.1z"></path>	<path class="st0" d="M323.9-23c-0.3-0.4-0.4-0.8-0.6-1.2c-0.2-0.8-0.1-1.6,0.2-2.3l-67.2-34.8c-0.2,0.4-0.5,0.7-0.8,1l41.2,58.9  L323.9-23z"></path>	<path class="st0" d="M324.2-22.6L297-1.1L325,39c0.3-0.2,0.7-0.3,1.1-0.4c0.2,0,0.4-0.1,0.6-0.1l0-59.9  C325.7-21.5,324.8-21.9,324.2-22.6z"></path>	<path class="st0" d="M253,33l43.3-34.3l-41.2-58.9c-0.3,0.2-0.7,0.3-1.1,0.4c-0.2,0.1-0.5,0.1-0.7,0.1l-2.7,91.5  C251.5,31.9,252.4,32.4,253,33z"></path>	<path class="st0" d="M253.3,33.4c0.3,0.4,0.4,0.8,0.6,1.2c0,0.1,0.1,0.2,0.1,0.4l69.4,6.5c0.1-0.9,0.6-1.7,1.3-2.3l-28-40.1  L253.3,33.4z"></path>	<path class="st0" d="M327.2-21.4l0,59.9c0.9,0.1,1.7,0.5,2.4,1.1l41.1-35.8c-0.3-0.4-0.6-0.9-0.7-1.5c-0.2-0.9-0.1-1.7,0.3-2.4  l-40.2-23c-0.5,0.8-1.3,1.3-2.2,1.5C327.6-21.5,327.4-21.5,327.2-21.4z"></path>	<path class="st0" d="M253.9,35.5c0,0.4-0.1,0.8-0.2,1.2l30.7,31.1l39.3-23.9c-0.1-0.3-0.3-0.6-0.3-0.9c-0.1-0.3-0.1-0.6-0.1-0.9  l-42.7-4L253.9,35.5z"></path>	<path class="st0" d="M323.9,44.3l-39.2,23.9l39.9,40.4c0.4-0.4,1-0.7,1.6-0.8c0.2,0,0.4-0.1,0.6-0.1l-0.1-61.8  C325.6,45.7,324.6,45.2,323.9,44.3z"></path>	<path class="st0" d="M203.8,42C203.8,42,203.8,42,203.8,42l22.5-48.2l-3.5-6.1c-0.2,0.1-0.5,0.2-0.8,0.3c-0.6,0.1-1.1,0.1-1.7,0  L203.8,42z"></path>	<path class="st0" d="M248.7,32.2c0.2-0.1,0.5-0.2,0.8-0.3c0.2-0.1,0.5-0.1,0.7-0.1l2.7-91.5c-0.3,0-0.7-0.1-1-0.2l-25,53.6  L248.7,32.2z"></path>	<path class="st0" d="M201.7,41.8c0.6-0.1,1.1-0.1,1.7,0l16.6-54c-1.1-0.4-2-1.4-2.3-2.6c0,0,0,0,0,0L99.4,4c0.1,0.6,0,1.3-0.2,1.9  l99.9,38.2C199.5,43,200.4,42.1,201.7,41.8z"></path>	<path class="st0" d="M109.8,43.1c2-0.5,3.9,0.8,4.4,2.7c0,0.2,0.1,0.4,0.1,0.6l71.2-0.7l13.4-0.1c0-0.3,0-0.6,0.1-0.9L99,6.3  c-0.4,0.8-1.2,1.5-2.1,1.8l12.6,35C109.6,43.1,109.7,43.1,109.8,43.1z"></path>	<path class="st0" d="M107.1,45.7c0.3-1,1-1.9,2.1-2.4L96.5,8.2C95.7,8.4,95,8.3,94.3,8L80.6,40.1L107.1,45.7z"></path>	<path class="st0" d="M66.2,37L80.1,40L93.9,7.8c-0.2-0.1-0.5-0.3-0.7-0.5L65.3,34.5c0.4,0.4,0.7,1,0.8,1.6  C66.2,36.4,66.2,36.7,66.2,37z"></path>	<path class="st0" d="M251.5-60.1C251.5-60.1,251.4-60.1,251.5-60.1l-28,41.6c0.6,0.5,1.1,1.2,1.3,2.1c0.4,1.5-0.3,3.1-1.6,3.9  l3.3,5.8L251.5-60.1z"></path>	<path class="st1" d="M-13.4,246.9c2-0.5,3.2-2.4,2.7-4.4c0-0.2-0.1-0.3-0.1-0.4l106.4-47.8l0.1,0.1l0.1-0.3l0.9-0.4l-0.7,0  l32.5-60.7c0.7,0.3,1.5,0.4,2.4,0.2c1.6-0.4,2.7-1.7,2.8-3.3l54.3,0.6c0,0.2,0,0.4,0.1,0.6c0.5,2,2.4,3.2,4.4,2.7  c2-0.5,3.2-2.4,2.7-4.4c-0.1-0.4-0.2-0.7-0.4-1.1l60.7-42.2c0.8,1.1,2.3,1.7,3.7,1.3c1.1-0.3,2-1.1,2.5-2.1l61.8,24.6  c-0.2,0.6-0.2,1.3-0.1,2c0.5,2,2.4,3.2,4.4,2.7c2-0.5,3.2-2.4,2.7-4.4c-0.4-1.6-1.8-2.7-3.3-2.8l-0.1-61.8c0.2,0,0.4,0,0.6-0.1  c2-0.5,3.2-2.4,2.7-4.4c-0.1-0.5-0.4-1-0.7-1.4L371,4.1c0.9,0.8,2.1,1.2,3.4,0.9c2-0.5,3.2-2.4,2.7-4.4c-0.5-2-2.4-3.2-4.4-2.7  c-0.9,0.2-1.7,0.8-2.2,1.5l-40.2-23c0.4-0.7,0.5-1.6,0.3-2.4c-0.5-2-2.4-3.2-4.4-2.7c-1,0.2-1.8,0.9-2.3,1.7l-67.2-34.8  c0.3-0.7,0.4-1.5,0.2-2.3c-0.5-2-2.4-3.2-4.4-2.7c-2,0.5-3.2,2.4-2.7,4.4c0.2,0.9,0.7,1.6,1.3,2.1l-27.9,41.6  c-0.8-0.5-1.7-0.6-2.7-0.4c-1.8,0.4-3,2.1-2.8,3.9L99.3,3.6l0,0.2c0,0,0,0,0,0c-0.5-2-2.4-3.2-4.4-2.7c-2,0.5-3.2,2.4-2.7,4.4  c0.1,0.5,0.4,1,0.7,1.4L65,34.1c-0.1-0.1-0.3-0.2-0.4-0.3L106.6-45c0.7,0.3,1.5,0.4,2.3,0.2c2-0.5,3.2-2.4,2.7-4.4  c-0.5-2-2.4-3.2-4.4-2.7c-1.2,0.3-2.2,1.2-2.6,2.3L7.1-78.7c0.1-0.5,0.1-1,0-1.5c-0.5-2-2.4-3.2-4.4-2.7c-1.8,0.4-2.9,2.1-2.8,3.8  l-47.4,8.6c-0.5-1.9-2.4-3.1-4.4-2.7c-2,0.5-3.2,2.4-2.7,4.4c0.3,1.4,1.4,2.4,2.7,2.7l-6.3,36.8c-0.4,0-0.7,0-1.1,0.1  c-2,0.5-3.2,2.4-2.7,4.4c0.5,2,2.4,3.2,4.4,2.7c0,0,0,0,0.1,0l17,46.8c-1.7,0.6-2.7,2.4-2.2,4.2c0.1,0.6,0.4,1.1,0.8,1.5  l-35.3,33.5c-0.9-0.8-2.1-1.2-3.3-0.9c-2,0.5-3.2,2.4-2.7,4.4c0.5,2,2.4,3.2,4.4,2.7c0.5-0.1,0.9-0.3,1.3-0.6l28.1,33.7  c-0.9,0.9-1.4,2.2-1,3.5c0.2,1,0.8,1.8,1.6,2.3L-78,163.5c-0.7-0.3-1.5-0.4-2.3-0.2c-2,0.5-3.2,2.4-2.7,4.4c0.5,2,2.4,3.2,4.4,2.7  c1.3-0.3,2.2-1.2,2.6-2.4l85.9,22.9c-0.1,0.5-0.1,1,0,1.5c0,0.1,0.1,0.3,0.1,0.4l-22.8,47c-0.7-0.3-1.4-0.4-2.2-0.2  c-2,0.5-3.2,2.4-2.7,4.4C-17.3,246.1-15.3,247.4-13.4,246.9z M95.2,193.7L17,191.5c0-0.2,0-0.5-0.1-0.7c-0.1-0.2-0.1-0.5-0.2-0.7  l54.1-28.7L95.2,193.7z M-17.8,75.7c0.7,0.4,1.6,0.6,2.5,0.4L12.3,188l-0.1,0.2c-0.3,0.1-0.5,0.2-0.8,0.4l-53.9-76.2L-17.8,75.7z   M-18.6,75.1l-26.3,28c-0.5-0.4-1.1-0.7-1.7-0.8l3.3-32.1l23.8,2.2c0,0.3,0,0.6,0.1,0.9C-19.4,74.1-19,74.6-18.6,75.1z M-14.8,76.1  c0.5-0.2,0.9-0.4,1.3-0.7l53.8,55.7l-25.5,57.2c-0.6-0.2-1.2-0.3-1.9-0.2L-14.8,76.1z M-14,69.5l25.8-49c0.7,0.3,1.5,0.4,2.3,0.2  c0.3-0.1,0.7-0.2,1-0.4l19.1,29.2l-46.9,21.3C-13,70.3-13.5,69.8-14,69.5z M16.1,189.2l37.6-39.3c0.9,0.7,2,1,3.2,0.8  c1.8-0.4,3-2.1,2.8-3.9L70.5,161l-54,28.7C16.4,189.5,16.3,189.3,16.1,189.2z M15.1,188.4l25.5-57l12.7,13.1  c-0.8,0.9-1.1,2.1-0.9,3.3c0.1,0.6,0.5,1.2,0.9,1.6l-37.4,39.2l-0.1,0.2C15.6,188.7,15.4,188.5,15.1,188.4z M55.2,143.5  c-0.6,0.1-1.1,0.4-1.5,0.8L40.8,131l17.6-39.3c0.3,0.1,0.5,0.2,0.8,0.2L56,143.4C55.7,143.4,55.5,143.4,55.2,143.5z M59.7,91.9  c0.3,0,0.5,0,0.8-0.1c1-0.2,1.8-0.9,2.3-1.7l18.1,10.7l-23.3,42.9c-0.3-0.2-0.7-0.3-1.1-0.3L59.7,91.9z M63,89.7  c0.3-0.7,0.4-1.5,0.2-2.3c-0.1-0.5-0.3-0.9-0.6-1.3l45.3-36.9c0.2,0.2,0.5,0.4,0.7,0.6l-27.5,50.6L63,89.7z M62.3,40.6l-3.1,44  c-0.1,0-0.3,0-0.4,0.1c-0.3,0.1-0.7,0.2-1,0.4l-23-35.3l24.5-11.1C59.9,39.7,61.1,40.5,62.3,40.6z M62.2,85.6  c-0.3-0.3-0.6-0.5-0.9-0.6l19-44.4l26.6,5.6c-0.1,0.4-0.1,0.9,0.1,1.4c0.1,0.5,0.3,0.9,0.6,1.3L62.2,85.6z M60.9,84.8  c-0.4-0.1-0.8-0.2-1.2-0.2l3.1-44c0.2,0,0.4,0,0.6-0.1c1.5-0.3,2.5-1.6,2.8-3l13.7,2.9L60.9,84.8z M59,37.7c0,0.2,0.1,0.3,0.1,0.5  L34.6,49.4L15.5,20.1c0.5-0.4,0.9-0.8,1.1-1.4l42.5,17C58.9,36.4,58.8,37.1,59,37.7z M34.4,50l23.1,35.3c-0.6,0.5-1.1,1.2-1.3,2  l-68.5-14.2c0.1-0.4,0-0.9-0.1-1.3c0-0.2-0.1-0.3-0.1-0.5L34.4,50z M56,87.7c-0.1,0.4,0,0.9,0.1,1.3c0.3,1.1,1,1.9,1.9,2.4  l-17.5,39.2L-13.2,75c0.4-0.4,0.7-0.9,0.8-1.5L56,87.7z M128.1,132.8l-32.5,60.8l-24.4-32.3l55.7-29.6  C127.3,132.1,127.7,132.5,128.1,132.8z M126.7,131.2l-55.8,29.6L60,146.3l66.6-15.6C126.6,130.9,126.7,131,126.7,131.2z   M126.5,130.3L59.5,146c-0.3-0.9-0.8-1.6-1.5-2L81.3,101l45.5,27C126.5,128.7,126.3,129.5,126.5,130.3z M129,126.2  c-0.8,0.2-1.5,0.8-2,1.4l-45.5-27L109.1,50c0.6,0.3,1.4,0.4,2.1,0.3L129,126.2z M111.7,50.2c0.5-0.1,0.9-0.4,1.3-0.7l45.5,47  l-26.2,30.3c-0.8-0.6-1.8-0.9-2.8-0.7L111.7,50.2z M113.3,49.1c0.6-0.6,0.9-1.4,0.9-2.3l84.7-0.9c0,0.1,0,0.2,0,0.3  c0.2,0.8,0.6,1.5,1.2,1.9L158.8,96L113.3,49.1z M188,130.1l-54.3-0.6c0-0.2,0-0.4-0.1-0.6c-0.2-0.7-0.5-1.3-1-1.8l26.2-30.3  l30.2,31.1C188.4,128.5,188.1,129.2,188,130.1z M191.9,126.7c-0.3,0-0.7,0-1.1,0.1c-0.6,0.1-1.1,0.4-1.5,0.8l-30.2-31.2l41.4-47.9  c0.4,0.3,0.9,0.5,1.4,0.6l-3.1,23.7L191.9,126.7z M192.4,126.7l0.6-4.3l9.4-73.4c0.3,0,0.6,0,1-0.1c0.8-0.2,1.4-0.6,1.9-1.1  l26.7,18.3l-38.5,61C193.1,126.9,192.8,126.8,192.4,126.7z M204.3,42.2l22.4-47.9l21.6,38.2c-1.1,0.8-1.8,2.1-1.6,3.5l-40.5,8.8  c0,0,0-0.1,0-0.1C205.8,43.5,205.2,42.7,204.3,42.2z M258.2,80.4l-3.3-24.5l-2.3-17.4c0.4-0.3,0.8-0.8,1-1.2L284,68l-22.7,13.8  C260.6,80.9,259.4,80.3,258.2,80.4z M246.7,36.4c0.3,1.2,1.2,2.2,2.3,2.5l-16.9,26.8l-26.7-18.3c0.4-0.7,0.7-1.4,0.6-2.3  L246.7,36.4z M254.8,84.9c0.1,0.4,0.2,0.7,0.4,1l-60.7,42.2c-0.2-0.3-0.4-0.5-0.7-0.7l38.5-61l23,15.7  C254.8,82.9,254.6,83.9,254.8,84.9z M255.6,81.7l-23-15.7l17-26.9c0.5,0.1,1,0.1,1.6,0c0.3-0.1,0.6-0.2,0.9-0.4l3,22l2.7,19.8  c0,0-0.1,0-0.1,0C256.8,80.6,256.1,81.1,255.6,81.7z M323.8,109.7l-61.8-24.6c0.2-0.6,0.2-1.3,0.1-1.9c-0.1-0.3-0.2-0.6-0.4-0.9  l22.8-13.9l39.9,40.5C324.1,109.1,323.9,109.4,323.8,109.7z M326.8,107.6c-0.2,0-0.4,0-0.6,0.1c-0.6,0.1-1.1,0.4-1.6,0.8  l-39.9-40.4l39.2-23.9c0.6,0.9,1.7,1.5,2.8,1.6L326.8,107.6z M323.4,43c0.1,0.3,0.2,0.6,0.3,0.9l-39.3,23.9l-30.7-31.1  c0.1-0.4,0.2-0.8,0.2-1.2l26.6,2.5l42.7,4C323.3,42.4,323.3,42.7,323.4,43z M323.3,41.6L253.9,35c0-0.1,0-0.2-0.1-0.4  c-0.1-0.5-0.3-0.9-0.6-1.2l43.3-34.3l28,40.1C323.9,39.9,323.5,40.7,323.3,41.6z M326.1,38.6c-0.4,0.1-0.7,0.2-1.1,0.4L297-1.1  l27.2-21.5c0.6,0.7,1.5,1.1,2.5,1.2l0,59.9C326.5,38.5,326.3,38.5,326.1,38.6z M330-23.1l40.2,23c-0.4,0.7-0.5,1.6-0.3,2.4  c0.1,0.6,0.4,1.1,0.7,1.5l-41.1,35.8c-0.6-0.6-1.5-1-2.4-1.1l0-59.9c0.2,0,0.4,0,0.6-0.1C328.7-21.8,329.5-22.3,330-23.1z   M256.4-61.4l67.2,34.8c-0.3,0.7-0.4,1.5-0.2,2.3c0.1,0.5,0.3,0.9,0.6,1.2L296.7-1.5l-41.2-58.9C255.9-60.7,256.2-61,256.4-61.4z   M253.4-59.6c0.2,0,0.5,0,0.7-0.1c0.4-0.1,0.7-0.2,1.1-0.4l41.2,58.9L253,33c-0.6-0.7-1.5-1.1-2.4-1.2L253.4-59.6z M252.9-59.6  l-2.7,91.5c-0.2,0-0.5,0-0.7,0.1c-0.3,0.1-0.5,0.2-0.8,0.3L226.9-6.2l25-53.6C252.2-59.8,252.6-59.7,252.9-59.6z M224.9-16.4  c-0.2-0.9-0.7-1.6-1.3-2.1l27.9-41.6c0,0,0.1,0,0.1,0L226.6-6.7l-3.3-5.8C224.6-13.4,225.2-14.9,224.9-16.4z M222.1-12  c0.3-0.1,0.5-0.2,0.8-0.3l3.5,6.1L203.8,42c0,0,0,0,0,0l16.6-54C221-11.9,221.6-11.9,222.1-12z M99.4,4l118.4-18.8c0,0,0,0,0,0  c0.3,1.2,1.2,2.2,2.3,2.6l-16.6,54c-0.5-0.1-1.1-0.1-1.7,0c-1.2,0.3-2.2,1.2-2.6,2.3L99.2,5.9C99.4,5.3,99.5,4.7,99.4,4z M99,6.3  L199,44.6c-0.1,0.3-0.1,0.6-0.1,0.9l-13.4,0.1l-71.2,0.7c0-0.2,0-0.4-0.1-0.6c-0.5-2-2.4-3.2-4.4-2.7c-0.1,0-0.1,0-0.2,0.1  l-12.6-35C97.9,7.8,98.6,7.1,99,6.3z M94.3,8c0.7,0.3,1.4,0.4,2.2,0.2l12.7,35.1c-1,0.4-1.8,1.3-2.1,2.4l-26.5-5.6L94.3,8z   M65.3,34.5L93.2,7.3c0.2,0.2,0.4,0.4,0.7,0.5L80.1,40L66.2,37c0-0.3,0-0.6-0.1-1C66,35.5,65.7,34.9,65.3,34.5z M6.9-78.3  l97.6,29.1c-0.1,0.5-0.1,1.1,0,1.7c0.2,1,0.8,1.8,1.6,2.3L64.1,33.6c-0.7-0.3-1.5-0.4-2.3-0.2c-0.2,0-0.4,0.1-0.6,0.2L5.3-76.3  C6.1-76.7,6.7-77.4,6.9-78.3z M4-75.8c0.1,0,0.2,0,0.3-0.1c0.2,0,0.4-0.1,0.6-0.2L60.7,33.8c-0.6,0.4-1.1,0.9-1.4,1.6l-42.5-17  c0.2-0.6,0.2-1.3,0.1-2c-0.4-1.7-2-2.9-3.7-2.8L4-75.8z M-55-26.5c-0.3-1.4-1.5-2.5-2.8-2.7l6.3-36.8c0.4,0,0.8,0,1.2-0.1  c1.8-0.4,3-2.2,2.8-4l47.4-8.6c0,0,0,0.1,0,0.1c0.4,1.7,1.9,2.9,3.6,2.8l9.1,89.3c-0.1,0-0.2,0-0.2,0c-0.9,0.2-1.7,0.8-2.2,1.5  l-65.7-39C-55-24.7-54.8-25.6-55-26.5z M-57-22.4c0.6-0.3,1-0.7,1.4-1.1l65.7,39c-0.4,0.7-0.5,1.6-0.3,2.5c0.2,1,0.8,1.8,1.7,2.3  l-25.8,49c-0.7-0.3-1.5-0.4-2.3-0.2c-0.1,0-0.3,0.1-0.4,0.1L-57-22.4z M-55.9-18.6l19.3,44.3c-0.9-1-2.3-1.5-3.6-1.2c0,0,0,0,0,0  L-55.9-18.6z M-35.8,27.6l17,38.9l-18.6-35.4C-36.2,30.4-35.6,29-35.8,27.6z M-39.4,31.8c0.3,0,0.6,0,0.9-0.1  c0.3-0.1,0.5-0.2,0.8-0.3l19.9,38.1c-0.9,0.6-1.5,1.5-1.7,2.6l-23.8-2.2L-39.4,31.8z M-76.4,65.8c-0.1-0.6-0.4-1.1-0.8-1.5  l35.3-33.5c0.5,0.5,1.2,0.8,2,0.9l-3.9,38l-32.5-3C-76.3,66.4-76.4,66.1-76.4,65.8z M-74.2,73.2l-3.3-3.9c0.6-0.6,1-1.3,1.1-2.1  l32.5,3l-3.3,32.1c-0.3,0-0.6,0-1,0.1c-0.5,0.1-0.9,0.3-1.3,0.6L-74.2,73.2z M-43.7,105.1c-0.2-0.6-0.5-1.2-0.9-1.7l26.3-28  c0,0,0.1,0,0.1,0.1l-24.6,36.4l-2.2-3.1C-43.9,107.9-43.4,106.5-43.7,105.1z M-48.8,109.3c0.7,0.3,1.5,0.4,2.3,0.2  c0.4-0.1,0.8-0.2,1.1-0.4l2.3,3.3L-77.2,163L-48.8,109.3z M-75.9,167.5c0.1-0.5,0.1-1,0-1.5c-0.2-0.9-0.7-1.6-1.3-2.1l34.5-51.2  l53.8,76.1c-0.5,0.4-0.9,1-1.2,1.7L-75.9,167.5z M-12.4,240.1l22.6-46.7c0.8,1.4,2.4,2.1,4,1.7c1.6-0.4,2.7-1.7,2.8-3.2l77.6,2.2  L-11,241.6C-11.3,241-11.8,240.5-12.4,240.1z"></path></g><g>	<path class="st0" d="M673.1-63.4c0.9,0,1.7-0.4,2.4-1l50.3,46.9c-0.5,0.6-0.8,1.4-0.8,2.1L672-14.6L673.1-63.4z"></path>	<path class="st0" d="M670.7,43.5l1.3-57.6l52.9-0.8c0.1,0.8,0.4,1.6,1,2.2l-53.2,57C672.1,43.9,671.4,43.6,670.7,43.5z"></path>	<path class="st0" d="M576.1-35.7c0.3-0.3,0.6-0.7,0.7-1.1l66.4,21.8c-0.2,0.8-0.1,1.6,0.2,2.4L605.9,6.4l-30.1-41.8  C575.9-35.5,576-35.6,576.1-35.7z"></path>	<path class="st0" d="M730.4-87.7l-2,68.9c-0.6,0-1.1,0.2-1.6,0.4l-33.6-53.4L730.4-87.7z"></path>	<path class="st0" d="M577-39l74.2-21.5L647-17.8c-1,0-2.1,0.4-2.8,1.2c-0.3,0.3-0.6,0.7-0.7,1.1L577-37.3  C577.2-37.9,577.2-38.5,577-39z"></path>	<path class="st0" d="M692.7-71.6l33.7,53.5c-0.1,0.1-0.2,0.2-0.4,0.3l-50-46.7L692.7-71.6z"></path>	<path class="st0" d="M746.8,91.5c-0.1,0.1-0.1,0.1-0.2,0.2l-73-42.9c0.4-0.8,0.5-1.6,0.3-2.4l62.8-18.1l12.1,62.1  C748,90.5,747.3,90.9,746.8,91.5z"></path>	<path class="st0" d="M729-11.5l7.6,39.4L673.8,46c-0.2-0.5-0.4-0.9-0.8-1.3l53.2-57C727-11.6,728-11.4,729-11.5z"></path>	<path class="st0" d="M814.8,91l-12.1,15.8l-13.5,17.6c-0.2-0.3-0.4-0.5-0.6-0.8c-0.4-0.4-0.9-0.6-1.3-0.8l-1.3-31.8l27.8-2.2  C813.7,89.7,814.1,90.4,814.8,91C814.7,91,814.7,91,814.8,91z"></path>	<path class="st0" d="M729.5-11.6c0.6-0.2,1.3-0.5,1.7-1c0.1-0.2,0.3-0.3,0.4-0.5L779,13.4c-0.4,0.7-0.4,1.6-0.3,2.4l-41.7,12  L729.5-11.6z"></path>	<path class="st0" d="M782.7,18.6c0.3,0,0.6-0.1,1-0.2l31.7,66.8c-0.3,0.2-0.6,0.4-0.8,0.7c-0.7,0.7-1,1.7-1,2.6l-27.7,2.2  L782.7,18.6z"></path>	<path class="st0" d="M753.1,93.7l32.2-2.6l1.3,31.6c-1.2-0.2-2.4,0.1-3.3,1L752.5,96C753,95.3,753.2,94.5,753.1,93.7z"></path>	<path class="st0" d="M752.2,96.4l30.8,27.8c-0.8,1.1-0.9,2.6-0.3,3.8L745,150.3l4.4-52.7c1,0,2-0.4,2.7-1.2  C752.2,96.5,752.2,96.4,752.2,96.4z"></path>	<path class="st0" d="M750.8,90.6c-0.5-0.2-1-0.3-1.5-0.2l-12.1-62.2l41.7-12c0.2,0.5,0.5,1,0.9,1.4c0.3,0.3,0.6,0.5,0.9,0.6  l-20.8,50.2L750.8,90.6z"></path>	<path class="st0" d="M753.1,93.3c-0.1-0.7-0.5-1.4-1.1-1.9c-0.2-0.2-0.5-0.4-0.8-0.6l28.3-68.3l1.7-4c0.4,0.1,0.7,0.2,1.1,0.2  l3.1,72.1L753.1,93.3z"></path>	<path class="st0" d="M831.4,114.9l-41.8,11.6c0-0.5-0.1-1.1-0.3-1.6l10.7-14l15.1-19.6c1.1,0.7,2.4,0.8,3.5,0.3L831.4,114.9z"></path>	<path class="st0" d="M657.6-123.3L651.3-61l-74.4,21.5c-0.2-0.4-0.4-0.9-0.7-1.2l79.7-83.4C656.4-123.7,657-123.4,657.6-123.3z"></path>	<path class="st0" d="M574.6,22.9L605.8,7l15.8,21.9c-0.1,0.1-0.2,0.2-0.4,0.3c-0.5,0.5-0.8,1.1-0.9,1.8l-45.4-6.4  C574.9,24.1,574.9,23.5,574.6,22.9z"></path>	<path class="st0" d="M605.5,6.6l-31.1,15.9c-0.2-0.3-0.4-0.6-0.6-0.8c-0.6-0.6-1.4-0.9-2.1-1l2-55.3c0.6,0,1.3-0.2,1.8-0.6  L605.5,6.6z"></path>	<path class="st0" d="M654.9-125.2c0.1,0.2,0.3,0.5,0.5,0.7l0,0.2L575.8-41c-0.7-0.6-1.5-0.9-2.4-0.9l-3.2-44L654.9-125.2z"></path>	<path class="st0" d="M660.3-124c0.2-0.1,0.4-0.3,0.5-0.5c0.2-0.2,0.3-0.4,0.4-0.6l68.9,36.9l-37.2,15.9L660.3-124z"></path>	<path class="st0" d="M692.4-72l-16.5,7.1c1-1.5,0.9-3.5-0.5-4.8c-0.9-0.8-2-1.1-3.1-0.9l-13-52.8c0.2-0.1,0.4-0.2,0.6-0.3L692.4-72  z"></path>	<path class="st0" d="M570.2-40l-21.7-9.9l13.1-29.5c0.6,0.2,1.3,0.3,1.9,0.2l8.9,37.4c-0.6,0.2-1.1,0.5-1.6,1  C570.6-40.5,570.4-40.2,570.2-40z"></path>	<path class="st0" d="M670.2,43.5c-0.3,0-0.6,0.1-0.9,0.2l-20.9-54.6c0.4-0.2,0.8-0.5,1.1-0.8c0.6-0.6,0.9-1.3,1-2.1l21-0.3  L670.2,43.5z"></path>	<path class="st0" d="M667.7,44.7c-0.3,0.3-0.6,0.7-0.7,1.2l-25.9-8.4l5.6-48c0.4,0,0.7,0,1.1-0.1l21.1,54.5  C668.4,44.1,668,44.3,667.7,44.7z"></path>	<path class="st0" d="M626.3,29.1c-0.2-0.2-0.3-0.3-0.5-0.4L645-11c0.4,0.2,0.7,0.3,1.1,0.4l-5.6,47.9L627.3,33  C627.8,31.7,627.5,30.1,626.3,29.1z"></path>	<path class="st0" d="M658.9-123.1l13,52.6c-0.6,0.2-1.1,0.5-1.6,1c-0.9,0.9-1.1,2.2-0.9,3.3l-17.5,5.1l6.3-62.1  c0.3,0,0.5,0,0.8-0.1L658.9-123.1z"></path>	<path class="st0" d="M648.2-17.6c-0.3-0.1-0.5-0.2-0.8-0.2l4.3-42.9l17.7-5.1c0.2,0.5,0.5,1,0.9,1.4c0.2,0.2,0.4,0.4,0.7,0.5  L648.2-17.6z"></path>	<path class="st0" d="M671.5-14.6l-21,0.3c0-1-0.4-1.9-1.2-2.6c-0.2-0.2-0.4-0.4-0.7-0.5l22.9-46.3c0.3,0.1,0.7,0.2,1.1,0.3  L671.5-14.6z"></path>	<path class="st0" d="M606.2,6.8l37.5-19.1c0.2,0.3,0.4,0.6,0.6,0.8c0.1,0.1,0.2,0.2,0.3,0.3l-19.2,39.7c-1.1-0.5-2.5-0.5-3.5,0.2  L606.2,6.8z"></path>	<path class="st0" d="M533.9-9.1c0.8-1.1,1-2.6,0.4-3.8L568-34.5L533.9-9.1z"></path>	<path class="st0" d="M532.3-7.9L493.4,21l35-29.6c0,0,0,0,0,0C529.5-7.7,531-7.4,532.3-7.9z"></path>	<path class="st0" d="M532.4-14.7c-0.7-0.3-1.5-0.3-2.2-0.2l-14-46.6c0.5-0.2,1-0.5,1.4-0.9c0.2-0.2,0.4-0.5,0.5-0.8l29.7,13.6  L532.4-14.7z"></path>	<path class="st0" d="M621.3,34.4c0.6,0.6,1.4,0.9,2.2,1l-2.6,89.3c-0.9,0-1.9,0.4-2.5,1.2c-0.4,0.4-0.7,0.9-0.8,1.4L518.3,104  c0.2-0.9,0-1.8-0.4-2.5l103-67.5C621,34.1,621.2,34.3,621.3,34.4z"></path>	<path class="st0" d="M573.9,26.9c0.5-0.5,0.8-1.1,0.9-1.8l45.4,6.4c-0.1,0.7,0.1,1.4,0.5,2.1l-103,67.5c-0.1-0.2-0.3-0.3-0.4-0.5  c-0.1-0.1-0.1-0.1-0.2-0.2l52.3-72.9C570.8,28.4,572.7,28.2,573.9,26.9z"></path>	<path class="st0" d="M568.8,27.1c0.1,0.1,0.1,0.1,0.2,0.2l-52.3,73c-1.5-0.9-3.4-0.6-4.6,0.6c0,0,0,0.1-0.1,0.1l-36.8-31  c1.1-1.5,0.9-3.6-0.4-4.9c-0.3-0.3-0.7-0.5-1-0.7l12.8-35.1c1.3,0.4,2.8,0.1,3.8-1c0.6-0.7,1-1.6,1-2.4l76.4-1.2  C567.7,25.6,568.1,26.4,568.8,27.1z"></path>	<path class="st0" d="M571-35.6c0.6,0.6,1.4,0.9,2.1,1l-2,55.3c-0.9,0-1.9,0.4-2.6,1.2c-0.6,0.7-0.9,1.5-1,2.3l-76.4,1.2  c-0.1-0.6-0.3-1.2-0.6-1.7l80.1-59.5C570.8-35.8,570.9-35.7,571-35.6z"></path>	<path class="st0" d="M570-39.5c-0.4,1-0.3,2.1,0.2,3.1L534-13.3c-0.2-0.2-0.3-0.4-0.5-0.6c-0.2-0.2-0.5-0.4-0.7-0.5l15.5-34.9  L570-39.5z"></path>	<path class="st0" d="M819.1,91.4c0.3-0.2,0.5-0.4,0.8-0.6c0.5-0.5,0.8-1.1,0.9-1.7l65.9,9.4c0,0.3,0,0.7,0.1,1l-54.8,15.2  L819.1,91.4z"></path>	<path class="st0" d="M661.5-125.4c0.6-1.4,0.3-3.1-0.8-4.2c-1.2-1.1-3-1.3-4.4-0.5l3.6-51.8c0.7,0,1.4-0.2,2-0.6l68,93.7  L661.5-125.4z"></path>	<path class="st0" d="M573-41.9c0,0-0.1,0-0.1,0L564-79.3c0.6-0.2,1.1-0.5,1.6-1c1-1.1,1.2-2.6,0.7-3.8l3.5-1.6L573-41.9z"></path>	<path class="st0" d="M561.2-79.5l-13.1,29.5l-29.7-13.5c0.3-0.8,0.3-1.6,0.1-2.4l4.8-1.8l36.3-13.5c0.2,0.4,0.5,0.8,0.8,1.2  C560.6-79.9,560.9-79.7,561.2-79.5z"></path>	<path class="st0" d="M654.7-125.6l-84.5,39.2l-4.5-61.6c0.8-0.1,1.6-0.5,2.2-1.1c0.4-0.4,0.6-0.9,0.8-1.3l85.9,22.8  C654.4-127,654.5-126.3,654.7-125.6z"></path>	<path class="st0" d="M566.1-84.5c-0.2-0.3-0.4-0.6-0.7-0.9c-0.6-0.6-1.4-0.9-2.1-1l2-60.8l4.5,61L566.1-84.5z"></path>	<path class="st0" d="M820.8,213.7c-0.4,0.2-0.8,0.5-1.1,0.8c-0.6,0.6-0.9,1.3-1,2.1l-75.6-3.2c0-0.4-0.1-0.9-0.3-1.3l65-30.6  L820.8,213.7z"></path>	<path class="st0" d="M821.2,213.6l-12.9-32.2l44.3-20.9c0.2,0.3,0.4,0.6,0.7,0.9c0.2,0.1,0.3,0.3,0.5,0.4l-29.8,52  C823.1,213.3,822.1,213.3,821.2,213.6z"></path>	<path class="st0" d="M787.1,129.8l20.5,51.3l-65.1,30.6c-0.2-0.3-0.4-0.6-0.7-0.9c-0.2-0.2-0.4-0.3-0.6-0.4l43.1-80.7  C785.3,130.1,786.3,130.1,787.1,129.8z"></path>	<path class="st0" d="M787.6,129.6c0.4-0.2,0.8-0.5,1.1-0.8c0.1-0.1,0.2-0.2,0.2-0.3l63.5,28.9c-0.3,0.9-0.3,1.8,0,2.6l-44.3,20.9  L787.6,129.6z"></path>	<path class="st0" d="M824.4,214l29.8-52c0.8,0.4,1.7,0.5,2.6,0.2l17.9,51.5c-0.5,0.2-1,0.5-1.4,0.9c-0.6,0.6-0.9,1.4-1,2.3  l-46.3-0.1c-0.1-0.9-0.4-1.8-1.2-2.4C824.7,214.2,824.5,214.1,824.4,214z"></path>	<path class="st0" d="M789.2,128.2c0.2-0.4,0.3-0.7,0.4-1.1l42.1-11.7l22.2,40.3c-0.3,0.2-0.5,0.4-0.7,0.6c-0.2,0.2-0.4,0.5-0.5,0.8  l-39-17.8L789.2,128.2z"></path>	<path class="st0" d="M854.3,155.4l-22.1-40.2l54.7-15.2c0.2,0.5,0.5,1.1,1,1.5c0.1,0.1,0.3,0.3,0.5,0.4l-30.8,53.6  C856.4,154.9,855.2,154.9,854.3,155.4z"></path>	<path class="st0" d="M748.9,97.6C748.9,97.6,748.9,97.6,748.9,97.6l-4.4,53l-6,3.6c-0.1-0.2-0.3-0.4-0.5-0.6  c-0.4-0.4-0.9-0.7-1.5-0.8L748.9,97.6z"></path>	<path class="st0" d="M783,128.4c0.1,0.2,0.3,0.4,0.5,0.6c0.2,0.2,0.4,0.3,0.6,0.4l-43.1,80.7c-0.3-0.1-0.6-0.2-1-0.3l5-59  L783,128.4z"></path>	<path class="st0" d="M747,96.7c0.4,0.4,0.9,0.7,1.5,0.8L736,152.6c-1.2-0.2-2.4,0.2-3.3,1.1c0,0,0,0,0,0l-93.3-75.2  c0.4-0.5,0.7-1.1,0.8-1.7l105.7,16.5C745.7,94.6,746,95.8,747,96.7z"></path>	<path class="st0" d="M667.9,49.9c1.5,1.4,3.8,1.3,5.2-0.2c0.1-0.1,0.2-0.3,0.4-0.4l61.4,36l11.6,6.8c-0.2,0.3-0.3,0.6-0.4,0.9  L640.2,76.4c0-0.9-0.3-1.8-0.9-2.6l28.4-24.1C667.8,49.8,667.8,49.8,667.9,49.9z"></path>	<path class="st0" d="M666.8,46.3c-0.3,1-0.1,2.2,0.6,3.1L639,73.5c-0.6-0.5-1.3-0.8-2-0.9l4-34.6L666.8,46.3z"></path>	<path class="st0" d="M627.1,33.5l13.5,4.4l-4,34.8c-0.3,0-0.6,0-0.9,0.1L625,35.2c0.6-0.2,1.1-0.5,1.5-1  C626.7,34,626.9,33.8,627.1,33.5z"></path>	<path class="st0" d="M739.5,209.9C739.5,209.9,739.4,209.9,739.5,209.9l-3.6-50c0.8-0.1,1.6-0.5,2.2-1.1c1.1-1.2,1.3-2.8,0.6-4.2  l5.7-3.4L739.5,209.9z"></path>	<path class="st1" d="M657.2-188c-1.4,1.5-1.3,3.8,0.2,5.2c0.6,0.5,1.3,0.9,2,0.9l-3.6,52.1c-0.1,0.1-0.2,0.2-0.3,0.3  c-0.4,0.4-0.6,0.9-0.8,1.3l-85.9-22.8c0.2-1.2-0.1-2.5-1.1-3.4c-1.5-1.4-3.8-1.3-5.2,0.2c-1.4,1.5-1.3,3.8,0.2,5.2  c0.6,0.6,1.4,0.9,2.1,1l-2.1,61.6c-0.9,0-1.9,0.4-2.6,1.2c-0.9,1-1.2,2.3-0.8,3.6l-41.1,15.3c-0.2-0.4-0.5-0.8-0.8-1.2  c-1.5-1.4-3.8-1.3-5.2,0.2c-1.4,1.5-1.3,3.8,0.2,5.2c0.9,0.9,2.2,1.2,3.3,0.9l14,46.6c-0.5,0.2-1,0.5-1.4,0.9  c-1.3,1.4-1.3,3.4-0.2,4.8l-38,32.2c0,0,0,0,0,0c-1.5-1.4-3.8-1.3-5.2,0.2c-1.4,1.5-1.3,3.8,0.2,5.2c0.3,0.3,0.6,0.5,0.9,0.6  l-12.8,35.1c-1.3-0.4-2.7,0-3.7,1c-1.4,1.5-1.3,3.8,0.2,5.2c1.5,1.4,3.8,1.3,5.1-0.1l36.8,31c-1,1.5-0.8,3.5,0.5,4.7  c1.5,1.4,3.8,1.3,5.2-0.2c0.4-0.4,0.6-0.8,0.8-1.3l99.2,23.3c-0.2,1.2,0.2,2.4,1.1,3.3c1.5,1.4,3.8,1.3,5.2-0.2  c1.4-1.5,1.3-3.8-0.2-5.2c-0.6-0.6-1.4-0.9-2.2-1l2.6-89.3c0.2,0,0.4,0,0.6-0.1l10.7,37.5c-0.5,0.2-0.9,0.5-1.3,0.9  c-1.4,1.5-1.3,3.8,0.2,5.2c1.5,1.4,3.8,1.3,5.2-0.2c0,0,0,0,0,0l-0.1,0.2l93.3,75.2c-1,1.5-0.9,3.5,0.5,4.8c0.7,0.7,1.6,1,2.5,1  l3.5,50c-0.8,0.1-1.6,0.5-2.2,1.1c-1.4,1.5-1.3,3.8,0.2,5.2c1.5,1.4,3.8,1.3,5.2-0.2c0.6-0.6,0.9-1.3,1-2.1l75.6,3.2  c0,1,0.4,1.9,1.2,2.6c1.5,1.4,3.8,1.3,5.2-0.2c0.6-0.6,0.9-1.4,1-2.3l46.3,0.1c0.1,0.9,0.4,1.8,1.2,2.4c1.5,1.4,3.8,1.3,5.2-0.2  c1.4-1.5,1.3-3.8-0.2-5.2c-0.9-0.9-2.2-1.2-3.4-0.9l-17.9-51.5c0.5-0.2,0.9-0.5,1.3-0.9c1.4-1.5,1.3-3.8-0.2-5.2  c-0.1-0.1-0.3-0.3-0.5-0.4l30.8-53.6c1.4,0.7,3.2,0.4,4.3-0.8c1.4-1.5,1.3-3.8-0.2-5.2c-1.5-1.4-3.8-1.3-5.2,0.2  c-0.5,0.5-0.8,1.1-0.9,1.7l-65.9-9.4c0.1-1.1-0.3-2.2-1.1-3c-1.1-1-2.6-1.2-3.9-0.7l-31.6-66.8c0.3-0.2,0.6-0.4,0.9-0.7  c1.4-1.5,1.3-3.8-0.2-5.2c-1.5-1.4-3.8-1.3-5.2,0.2c-0.1,0.2-0.3,0.3-0.4,0.5l-47.4-26.5c0.7-1.4,0.4-3.1-0.8-4.3  c-0.6-0.6-1.4-0.9-2.2-1l2-68.9l0.6,0.3l-0.6-0.8l0-0.3l-0.2,0.1l-68.5-94.4c0.1-0.1,0.2-0.2,0.3-0.3c1.4-1.5,1.3-3.8-0.2-5.2  C660.9-189.6,658.6-189.5,657.2-188z M692.9-72.2L660.3-124c0.2-0.1,0.4-0.3,0.5-0.5c0.2-0.2,0.3-0.4,0.4-0.6l68.9,36.9L692.9-72.2  z M570.2-85.9l84.7-39.3c0.1,0.2,0.3,0.5,0.5,0.7l0,0.2L575.8-41c-0.7-0.6-1.5-0.9-2.4-0.9L570.2-85.9z M570.8-40.7  c-0.2,0.2-0.4,0.5-0.5,0.8l-21.7-9.9l13.1-29.5c0.6,0.2,1.3,0.3,1.9,0.2l8.9,37.4C571.8-41.5,571.2-41.2,570.8-40.7z M655.8-124.1  c0.5,0.4,1.1,0.7,1.7,0.8L651.3-61l-74.4,21.5c-0.2-0.4-0.4-0.9-0.7-1.2L655.8-124.1z M575.4-35.1l30.1,41.8l-31.1,15.9  c-0.2-0.3-0.4-0.6-0.6-0.8c-0.6-0.6-1.4-0.9-2.1-1l2-55.3C574.2-34.6,574.9-34.8,575.4-35.1z M659.9-123.7L692.4-72l-16.5,7.1  c1-1.5,0.9-3.5-0.5-4.8c-0.9-0.8-2-1.1-3.1-0.9l-13-52.8C659.5-123.5,659.7-123.6,659.9-123.7z M658.8-123.3l0.1,0.2l13,52.6  c-0.6,0.2-1.1,0.5-1.6,1c-0.9,0.9-1.1,2.2-0.9,3.3l-17.5,5.1l6.3-62.1C658.3-123.3,658.6-123.3,658.8-123.3z M671.1-63.9  l-22.9,46.3c-0.3-0.1-0.5-0.2-0.8-0.2l4.3-42.9l17.7-5.1c0.2,0.5,0.5,1,0.9,1.4C670.6-64.2,670.9-64,671.1-63.9z M671.5-63.7  c0.3,0.1,0.7,0.2,1.1,0.3l-1.1,48.8l-21,0.3c0-1-0.4-1.9-1.2-2.6c-0.2-0.2-0.4-0.4-0.7-0.5L671.5-63.7z M671.5-14.1l-1.3,57.6  c-0.3,0-0.6,0.1-0.9,0.2l-20.9-54.6c0.4-0.2,0.8-0.5,1.1-0.8c0.6-0.6,0.9-1.3,1-2.1L671.5-14.1z M621.9,28.7L606.2,6.8l37.5-19.1  c0.2,0.3,0.4,0.6,0.6,0.8c0.1,0.1,0.2,0.2,0.3,0.3l-19.2,39.7C624.3,27.9,623,28,621.9,28.7z M668.8,43.9c-0.4,0.2-0.8,0.5-1.1,0.8  c-0.3,0.3-0.6,0.7-0.7,1.2l-25.9-8.4l5.6-48c0.4,0,0.7,0,1.1-0.1L668.8,43.9z M640.6,37.3L627.3,33c0.5-1.3,0.2-2.9-0.9-4  c-0.2-0.2-0.3-0.3-0.5-0.4L645-11c0.4,0.2,0.7,0.3,1.1,0.4L640.6,37.3z M620.3,31l-45.4-6.4c0-0.6-0.1-1.2-0.3-1.7L605.8,7  l15.8,21.9c-0.1,0.1-0.2,0.2-0.4,0.3C620.7,29.8,620.4,30.4,620.3,31z M575.8-35.4c0.1-0.1,0.2-0.2,0.4-0.3  c0.3-0.3,0.6-0.7,0.7-1.1l66.4,21.8c-0.2,0.8-0.1,1.6,0.2,2.4L605.9,6.4L575.8-35.4z M577-37.3c0.1-0.6,0.2-1.1,0-1.7l74.2-21.5  L647-17.8c-1,0-2.1,0.4-2.8,1.2c-0.3,0.3-0.6,0.7-0.7,1.1L577-37.3z M726.8-18.4l-33.6-53.4l37.3-15.9l-2,68.9  C727.8-18.8,727.3-18.6,726.8-18.4z M726-17.8l-50-46.7l16.7-7.1l33.7,53.5C726.3-18,726.1-17.9,726-17.8z M724.9-15.3L672-14.6  l1.1-48.8c0.9,0,1.7-0.4,2.4-1l50.3,46.9C725.2-16.8,724.9-16.1,724.9-15.3z M672.7,44.4c-0.6-0.5-1.3-0.8-2-0.8l1.3-57.6l52.9-0.8  c0.1,0.8,0.4,1.6,1,2.2L672.7,44.4z M726.2-12.3c0.8,0.7,1.8,0.9,2.8,0.8l7.6,39.4L673.8,46c-0.2-0.5-0.4-0.9-0.8-1.3L726.2-12.3z   M736.7,28.3l12.1,62.1c-0.7,0.1-1.4,0.5-2,1.1c-0.1,0.1-0.1,0.1-0.2,0.2l-73-42.9c0.4-0.8,0.5-1.6,0.3-2.4L736.7,28.3z   M778.8,15.7l-41.7,12l-7.6-39.3c0.6-0.2,1.3-0.5,1.7-1c0.1-0.2,0.3-0.3,0.4-0.5L779,13.4C778.7,14.1,778.6,14.9,778.8,15.7z   M759.9,68.4l-9.2,22.1c-0.5-0.2-1-0.3-1.5-0.2l-12.1-62.2l41.7-12c0.2,0.5,0.5,1,0.9,1.4c0.3,0.3,0.6,0.5,0.9,0.6L759.9,68.4z   M782.2,18.6l3.1,72.1l-32.2,2.6c-0.1-0.7-0.5-1.4-1.1-1.9c-0.2-0.2-0.5-0.4-0.8-0.6l28.3-68.3l1.7-4  C781.5,18.5,781.9,18.6,782.2,18.6z M752.1,96.5c0,0,0.1-0.1,0.1-0.1l30.8,27.8c-0.8,1.1-0.9,2.6-0.3,3.8L745,150.3l4.4-52.7  C750.4,97.7,751.4,97.3,752.1,96.5z M818.7,91.6l12.8,23.3l-41.8,11.6c0-0.5-0.1-1.1-0.3-1.6l10.7-14l15.1-19.6  C816.2,92,817.5,92.1,818.7,91.6z M752.5,96c0.5-0.7,0.7-1.5,0.6-2.3l32.2-2.6l1.3,31.6c-1.2-0.2-2.4,0.1-3.3,1L752.5,96z   M813.5,88.4l-27.7,2.2l-3.1-72.1c0.3,0,0.6-0.1,1-0.2l31.7,66.8c-0.3,0.2-0.6,0.4-0.8,0.7C813.8,86.5,813.5,87.5,813.5,88.4z   M814.7,91C814.7,91,814.7,91,814.7,91l-12.1,15.9l-13.5,17.6c-0.2-0.3-0.4-0.5-0.6-0.8c-0.4-0.4-0.9-0.6-1.3-0.8l-1.3-31.8  l27.8-2.2C813.7,89.7,814.1,90.4,814.7,91z M886.7,99.5l-54.8,15.2l-12.8-23.4c0.3-0.2,0.5-0.4,0.8-0.6c0.5-0.5,0.8-1.1,0.9-1.7  l65.9,9.4C886.6,98.9,886.6,99.2,886.7,99.5z M857.4,155.4c-1-0.5-2.2-0.5-3.2,0l-22.1-40.2l54.7-15.2c0.2,0.5,0.5,1.1,1,1.5  c0.1,0.1,0.3,0.3,0.5,0.4L857.4,155.4z M852.6,157l-39-17.8l-24.4-11.1c0.2-0.4,0.3-0.7,0.4-1.1l42.1-11.7l22.2,40.3  c-0.3,0.2-0.5,0.4-0.7,0.6C852.9,156.4,852.7,156.7,852.6,157z M852.4,160l-44.3,20.9l-20.5-51.3c0.4-0.2,0.8-0.5,1.1-0.8  c0.1-0.1,0.2-0.2,0.2-0.3l63.5,28.9C852.1,158.3,852.1,159.2,852.4,160z M853.8,161.8l-29.8,52c-0.9-0.4-1.9-0.5-2.8-0.2  l-12.9-32.2l44.3-20.9c0.2,0.3,0.4,0.6,0.7,0.9C853.5,161.5,853.6,161.6,853.8,161.8z M824.8,214.4c-0.2-0.1-0.3-0.3-0.5-0.4  l29.8-52c0.8,0.4,1.7,0.5,2.6,0.2l17.9,51.5c-0.5,0.2-1,0.5-1.4,0.9c-0.6,0.6-0.9,1.4-1,2.3l-46.3-0.1  C825.9,215.9,825.5,215,824.8,214.4z M742.8,212.2l65-30.6l12.9,32.2c-0.4,0.2-0.8,0.5-1.1,0.8c-0.6,0.6-0.9,1.3-1,2.1l-75.6-3.2  C743.1,213,743,212.6,742.8,212.2z M784.5,129.7c0.8,0.4,1.8,0.4,2.7,0.1l20.5,51.3l-65.1,30.6c-0.2-0.3-0.4-0.6-0.7-0.9  c-0.2-0.2-0.4-0.3-0.6-0.4L784.5,129.7z M740,209.9l5-59l38-22.5c0.1,0.2,0.3,0.4,0.5,0.6c0.2,0.2,0.4,0.3,0.6,0.4l-43.1,80.7  C740.6,210,740.3,210,740,209.9z M738.7,154.6l5.7-3.4l-4.9,58.7c0,0-0.1,0-0.1,0l-3.5-50c0.8-0.1,1.6-0.5,2.2-1.1  C739.2,157.6,739.4,155.9,738.7,154.6z M736.5,152.8l12.4-55.1c0,0,0,0,0,0l-4.5,53l-6,3.6c-0.1-0.2-0.3-0.4-0.5-0.6  C737.5,153.2,737,152.9,736.5,152.8z M640.2,76.9l105.7,16.5c-0.2,1.2,0.2,2.4,1.1,3.3c0.4,0.4,0.9,0.7,1.5,0.8L736,152.6  c-1.2-0.2-2.4,0.2-3.3,1.1c0,0,0,0,0,0l-93.3-75.2C639.8,78.1,640.1,77.5,640.2,76.9z M639.3,73.8l28.4-24.1c0,0,0.1,0.1,0.1,0.1  c1.5,1.4,3.8,1.3,5.2-0.2c0.1-0.1,0.2-0.3,0.4-0.4l61.4,36l11.6,6.8c-0.2,0.3-0.3,0.6-0.4,0.9L640.2,76.4  C640.3,75.5,640,74.6,639.3,73.8z M641,38l25.8,8.3c-0.3,1-0.1,2.2,0.6,3.1L639,73.5c-0.6-0.5-1.3-0.8-2-0.9L641,38z M626.5,34.3  c0.2-0.2,0.4-0.5,0.6-0.8l13.5,4.4l-4,34.8c-0.3,0-0.6,0-0.9,0.1L625,35.2C625.6,35.1,626.1,34.7,626.5,34.3z M517.9,101.5  l103-67.5c0.1,0.2,0.3,0.3,0.4,0.5c0.6,0.6,1.4,0.9,2.2,1l-2.6,89.3c-0.9,0-1.9,0.4-2.5,1.2c-0.4,0.4-0.7,0.9-0.8,1.4L518.3,104  C518.5,103.2,518.3,102.3,517.9,101.5z M569.3,27.5c1.5,0.9,3.4,0.7,4.6-0.6c0.5-0.5,0.8-1.1,0.9-1.8l45.4,6.4  c-0.1,0.7,0.1,1.4,0.5,2.1l-103,67.5c-0.1-0.2-0.3-0.3-0.4-0.5c-0.1-0.1-0.1-0.1-0.2-0.2L569.3,27.5z M491.3,25.8l76.4-1.2  c0.1,0.9,0.5,1.7,1.1,2.4c0.1,0.1,0.1,0.1,0.2,0.2l-52.3,73c-1.5-0.9-3.4-0.6-4.6,0.6c0,0,0,0.1-0.1,0.1l-36.8-31  c1.1-1.5,0.9-3.6-0.4-4.9c-0.3-0.3-0.7-0.5-1-0.7l12.8-35.1c1.3,0.4,2.8,0.1,3.8-1C490.9,27.6,491.2,26.7,491.3,25.8z M570.7-35.9  c0.1,0.1,0.2,0.2,0.3,0.3c0.6,0.6,1.4,0.9,2.1,1l-2,55.3c-0.9,0-1.9,0.4-2.6,1.2c-0.6,0.7-0.9,1.5-1,2.3l-76.4,1.2  c-0.1-0.6-0.3-1.2-0.6-1.7L570.7-35.9z M528.5-8.7C528.5-8.7,528.5-8.6,528.5-8.7c1.1,1,2.5,1.2,3.8,0.8L493.4,21L528.5-8.7z   M534.3-12.9L568-34.5L533.9-9.1C534.8-10.2,534.9-11.7,534.3-12.9z M548.3-49.4l21.7,9.9c-0.4,1-0.3,2.1,0.2,3.1L534-13.3  c-0.2-0.2-0.3-0.4-0.5-0.6c-0.2-0.2-0.5-0.4-0.7-0.5L548.3-49.4z M518.1-63.2l29.7,13.6l-15.5,34.9c-0.7-0.3-1.5-0.3-2.2-0.2  l-14-46.6c0.5-0.2,1-0.5,1.4-0.9C517.8-62.6,518-62.9,518.1-63.2z M559.5-81.3c0.2,0.4,0.5,0.8,0.8,1.2c0.2,0.2,0.5,0.4,0.8,0.6  l-13.1,29.5l-29.7-13.5c0.3-0.8,0.3-1.6,0.1-2.4l4.8-1.8L559.5-81.3z M566.3-84.1l3.5-1.6l3.2,43.8c0,0-0.1,0-0.1,0L564-79.3  c0.6-0.2,1.1-0.5,1.6-1C566.6-81.3,566.8-82.8,566.3-84.1z M565.3-147.2l4.5,61l-3.6,1.7c-0.2-0.3-0.4-0.6-0.7-0.9  c-0.6-0.6-1.4-0.9-2.1-1L565.3-147.2z M654.5-127.6c-0.1,0.7-0.1,1.4,0.2,2l-84.5,39.2l-4.5-61.6c0.8-0.1,1.6-0.5,2.2-1.1  c0.4-0.4,0.6-0.9,0.8-1.3L654.5-127.6z M661.8-182.4l68,93.7l-68.4-36.7c0.6-1.4,0.3-3.1-0.8-4.2c-1.2-1.1-3-1.3-4.4-0.5l3.6-51.8  C660.6-181.8,661.3-182,661.8-182.4z"></path></g></svg>