<svg xmlns="http://www.w3.org/2000/svg" xmlns:xlink="http://www.w3.org/1999/xlink" id="Layer_1" x="0px" y="0px" viewBox="0 0 400 400" style="enable-background:new 0 0 400 400;" xml:space="preserve"><style type="text/css">	.st0{fill:none;}	.st1{fill:#FFFFFF;}</style><g>	<path class="st0" d="M-136,184.9c0.7,0.5,1.3,1.2,1.5,2l66.9-15.7c-0.1-0.8,0-1.6,0.3-2.3l-45.5-27L-136,184.9z"></path>	<path class="st0" d="M-84.9,91l-27.5,50.7l45.5,27c0.5-0.7,1.1-1.2,2-1.4l-17.8-75.9C-83.6,91.4-84.3,91.3-84.9,91z"></path>	<path class="st0" d="M-206.4,112.7c0.1,0.5,0.1,0.9,0.1,1.3l68.5,14.2c0.2-0.8,0.7-1.5,1.3-2L-159.6,91l-46.9,21.3  C-206.5,112.4-206.4,112.6-206.4,112.7z"></path>	<path class="st0" d="M-98.4,234.5l32.5-60.8c-0.5-0.3-0.9-0.7-1.2-1.2l-55.7,29.6L-98.4,234.5z"></path>	<path class="st0" d="M-207.2,116l53.7,55.6l17.5-39.2c-0.9-0.5-1.6-1.3-1.9-2.4c-0.1-0.4-0.1-0.9-0.1-1.3l-68.5-14.2  C-206.6,115.1-206.8,115.6-207.2,116z"></path>	<path class="st0" d="M-123.1,201.8l55.8-29.6c-0.1-0.1-0.1-0.3-0.2-0.4l-66.5,15.5L-123.1,201.8z"></path>	<path class="st0" d="M4.9,87.2c0-0.1,0-0.2,0-0.3l-84.7,0.9c0,0.8-0.4,1.6-0.9,2.3l45.5,46.9L6.1,89.1C5.6,88.7,5.1,88,4.9,87.2z"></path>	<path class="st0" d="M-61.7,167.7l26.2-30.3l-45.5-47c-0.4,0.3-0.8,0.6-1.3,0.7l17.8,75.9C-63.5,166.9-62.5,167.2-61.7,167.7z"></path>	<path class="st0" d="M63.7,121.4L61,101.7l-3-22c-0.3,0.2-0.6,0.3-0.9,0.4c-0.5,0.1-1.1,0.1-1.6,0l-17,26.9l23,15.7  c0.5-0.6,1.2-1.1,2-1.3C63.6,121.4,63.6,121.4,63.7,121.4z"></path>	<path class="st0" d="M-61.4,168.1c0.5,0.5,0.8,1.1,1,1.8c0.1,0.2,0.1,0.4,0.1,0.6l54.3,0.6c0.1-0.8,0.4-1.6,0.9-2.2l-30.2-31.1  L-61.4,168.1z"></path>	<path class="st0" d="M-0.2,168.4c0.3,0.2,0.5,0.4,0.7,0.7l60.7-42.2c-0.2-0.3-0.3-0.6-0.4-1c-0.2-1,0-2,0.4-2.8l-23-15.7  L-0.2,168.4z"></path>	<path class="st0" d="M11.5,88.4l26.7,18.3L55.1,80c-1.1-0.4-2-1.3-2.3-2.5l-40.6,8.8C12.2,87,12,87.8,11.5,88.4z"></path>	<path class="st0" d="M12.1,85.7l40.5-8.8c-0.2-1.4,0.5-2.8,1.6-3.5L32.6,35.3L10.2,83.2C11.1,83.7,11.8,84.5,12.1,85.7  C12.1,85.6,12.1,85.7,12.1,85.7z"></path>	<path class="st0" d="M7.9,90c-0.5-0.1-1-0.3-1.4-0.6l-41.4,47.9l30.2,31.2c0.4-0.4,0.9-0.6,1.5-0.8c0.4-0.1,0.7-0.1,1.1-0.1  l6.9-53.9L7.9,90z"></path>	<path class="st0" d="M11.3,88.8c-0.5,0.6-1.1,1-1.9,1.1C9.1,90,8.8,90,8.4,90L-1,163.4l-0.6,4.3c0.4,0.1,0.7,0.2,1,0.4l38.5-61  L11.3,88.8z"></path>	<path class="st0" d="M90,109L59.5,78.1c-0.2,0.5-0.6,0.9-1,1.2l2.3,17.4l3.3,24.5c1.3-0.1,2.5,0.5,3.2,1.5L90,109z"></path>	<path class="st0" d="M-179.3,229.2l25.5-57.2l-53.8-55.7c-0.4,0.3-0.8,0.5-1.3,0.7l27.7,112C-180.5,228.9-179.9,229-179.3,229.2z"></path>	<path class="st0" d="M-178.5,61.1l19.1,29.3l24.6-11.2c-0.1-0.1-0.1-0.3-0.1-0.5c-0.2-0.7-0.1-1.4,0.1-2l-42.5-17  C-177.7,60.3-178.1,60.7-178.5,61.1z"></path>	<path class="st0" d="M-159.8,90.6l-19.1-29.3c-0.3,0.2-0.6,0.3-1,0.4c-0.8,0.2-1.6,0.1-2.3-0.2l-25.8,49c0.5,0.3,1,0.8,1.3,1.4  L-159.8,90.6z"></path>	<path class="st0" d="M-182.5,229.5c0.2-0.1,0.5-0.3,0.8-0.4l0.1-0.2l-27.7-111.7c-0.9,0.2-1.8,0-2.5-0.4l-24.7,36.6L-182.5,229.5z"></path>	<path class="st0" d="M-177.3,231.1c0.1,0.2,0.2,0.4,0.2,0.7c0.1,0.2,0.1,0.5,0.1,0.7l78.1,2.2l-24.4-32.3L-177.3,231.1z"></path>	<path class="st0" d="M-123.5,202l-10.8-14.3c0.2,1.8-1,3.5-2.8,3.9c-1.2,0.3-2.3,0-3.2-0.8l-37.6,39.3c0.1,0.2,0.3,0.3,0.4,0.5  L-123.5,202z"></path>	<path class="st0" d="M-213.6,113.5l-23.8-2.2l-3.3,32.1c0.6,0.1,1.2,0.4,1.7,0.8l26.3-28c-0.4-0.5-0.7-1-0.9-1.7  C-213.6,114.1-213.6,113.8-213.6,113.5z"></path>	<path class="st0" d="M-85.4,90.7c-0.3-0.2-0.5-0.4-0.7-0.6l-45.2,37c0.3,0.4,0.5,0.8,0.6,1.3c0.2,0.8,0.1,1.6-0.2,2.3l18.1,10.7  L-85.4,90.7z"></path>	<path class="st0" d="M-87,88.5c-0.1-0.5-0.1-0.9-0.1-1.4l-26.6-5.6l-19,44.4c0.3,0.2,0.6,0.4,0.9,0.6l45.4-36.8  C-86.7,89.4-86.9,89-87,88.5z"></path>	<path class="st0" d="M-130.6,81.5c-0.2,0.1-0.4,0.1-0.6,0.1l-3.1,44c0.4,0,0.8,0.1,1.2,0.2l19-44.4l-13.7-2.9  C-128,79.9-129.1,81.1-130.6,81.5z"></path>	<path class="st0" d="M-178.1,229.7l37.4-39.2c-0.4-0.4-0.7-1-0.9-1.6c-0.3-1.2,0.1-2.4,0.9-3.3l-12.7-13.1l-25.5,57  c0.2,0.1,0.4,0.3,0.6,0.4L-178.1,229.7z"></path>	<path class="st0" d="M-134.8,132.8c-0.3,0-0.5-0.1-0.8-0.2l-17.6,39.4l12.8,13.3c0.4-0.4,0.9-0.6,1.5-0.8c0.3-0.1,0.6-0.1,0.8-0.1  L-134.8,132.8z"></path>	<path class="st0" d="M-113.1,141.8l-18.1-10.7c-0.5,0.8-1.3,1.4-2.3,1.7c-0.3,0.1-0.6,0.1-0.8,0.1l-3.2,51.5c0.4,0,0.7,0.2,1.1,0.3  L-113.1,141.8z"></path>	<path class="st0" d="M-159.1,90.8l23,35.3c0.3-0.2,0.6-0.3,1-0.4c0.1,0,0.3-0.1,0.4-0.1l3.1-44c-1.2-0.1-2.4-0.8-2.9-1.9  L-159.1,90.8z"></path>	<path class="st0" d="M-229.8,68.6c0.2,1.4-0.5,2.7-1.6,3.5l18.6,35.4L-229.8,68.6z"></path>	<path class="st0" d="M-230.6,66.7l-19.3-44.3l15.6,43.1l0,0C-232.9,65.2-231.5,65.7-230.6,66.7z"></path>	<path class="st0" d="M-233.9,72.7c-0.7-0.1-1.4-0.4-2-0.9l-35.3,33.5c0.4,0.4,0.6,0.9,0.8,1.5c0.1,0.3,0.1,0.6,0.1,0.9l32.5,3  L-233.9,72.7z"></path>	<path class="st0" d="M-132.3,74.3c0.8-0.2,1.6-0.1,2.3,0.2l42.1-78.8c-0.8-0.5-1.4-1.3-1.6-2.3c-0.1-0.6-0.1-1.1,0-1.7l-97.6-29  c-0.3,0.8-0.8,1.5-1.6,2l55.8,109.8C-132.7,74.5-132.5,74.4-132.3,74.3z"></path>	<path class="st0" d="M-177.2,57.3c0.2,0.7,0.1,1.4-0.1,2l42.5,17c0.3-0.6,0.8-1.2,1.4-1.6l-55.7-109.8c-0.2,0.1-0.4,0.2-0.6,0.2  c-0.1,0-0.2,0-0.3,0.1l9.1,89.3C-179.1,54.4-177.6,55.6-177.2,57.3z"></path>	<path class="st0" d="M-181.6,54.6c0.1,0,0.2,0,0.2,0l-9-89.4c-1.7,0-3.2-1.1-3.6-2.8v-0.1l-47.4,8.6c0.2,1.8-1,3.6-2.8,4  c-0.4,0.1-0.8,0.1-1.2,0.1l-6.3,36.8c1.3,0.3,2.5,1.3,2.8,2.7c0.2,0.9,0.1,1.8-0.4,2.6l65.7,39C-183.2,55.4-182.5,54.8-181.6,54.6z  "></path>	<path class="st0" d="M-210.8,110c0.8-0.2,1.6-0.1,2.3,0.2l25.8-49c-0.7-0.4-1.4-1.2-1.6-2.2c-0.2-0.9-0.1-1.8,0.3-2.5l-65.7-39  c-0.4,0.5-0.8,0.9-1.4,1.1l39.9,91.5C-211.1,110.1-210.9,110-210.8,110z"></path>	<path class="st0" d="M-213.6,113c0.2-1.1,0.8-2,1.7-2.6l-19.9-38.1c-0.2,0.1-0.5,0.2-0.8,0.3c-0.3,0.1-0.6,0.1-0.9,0.1l-3.9,38  L-213.6,113z"></path>	<path class="st0" d="M67.6,123.3c0.2,0.3,0.3,0.6,0.4,0.9c0.2,0.7,0.1,1.3-0.1,1.9l61.8,24.6c0.1-0.3,0.3-0.6,0.6-0.9l-39.9-40.5  L67.6,123.3z"></path>	<path class="st0" d="M-177,233c-0.1,1.5-1.2,2.9-2.8,3.2c-1.6,0.4-3.2-0.4-4-1.7l-22.6,46.7c0.6,0.3,1.1,0.8,1.4,1.5l105.6-47.4  L-177,233z"></path>	<path class="st0" d="M-212.2,116.5C-212.2,116.4-212.2,116.4-212.2,116.5l-26.4,28c0.4,0.5,0.7,1,0.9,1.7c0.3,1.4-0.2,2.8-1.3,3.7  l2.2,3.1L-212.2,116.5z"></path>	<path class="st0" d="M-241.1,143.3l3.3-32.1l-32.5-3c-0.1,0.8-0.5,1.5-1.1,2.1l3.3,3.9l24.8,29.8c0.4-0.3,0.8-0.5,1.3-0.6  C-241.8,143.3-241.5,143.3-241.1,143.3z"></path>	<path class="st0" d="M-182.9,229.8l-53.8-76.1l-34.5,51.2c0.6,0.5,1.1,1.2,1.3,2.1c0.1,0.5,0.1,1.1,0,1.5l85.9,22.9  C-183.9,230.8-183.5,230.2-182.9,229.8z"></path>	<path class="st0" d="M-239.4,150.1c-0.3,0.2-0.7,0.4-1.1,0.4c-0.8,0.2-1.6,0.1-2.3-0.2l-28.4,53.7l34.2-50.7L-239.4,150.1z"></path>	<path class="st0" d="M129.9,18c-0.3-0.4-0.4-0.8-0.6-1.2c-0.2-0.8-0.1-1.6,0.2-2.3L62.3-20.3c-0.2,0.4-0.5,0.7-0.8,1l41.2,58.9  L129.9,18z"></path>	<path class="st0" d="M130.2,18.4L103,39.9L131,80c0.3-0.2,0.7-0.3,1.1-0.4c0.2,0,0.4-0.1,0.6-0.1V19.6  C131.7,19.5,130.8,19.1,130.2,18.4z"></path>	<path class="st0" d="M59,74l43.3-34.3L61.1-19.2c-0.3,0.2-0.7,0.3-1.1,0.4c-0.2,0.1-0.5,0.1-0.7,0.1l-2.7,91.5  C57.5,72.9,58.4,73.4,59,74z"></path>	<path class="st0" d="M59.3,74.4c0.3,0.4,0.4,0.8,0.6,1.2c0,0.1,0.1,0.2,0.1,0.4l69.4,6.5c0.1-0.9,0.6-1.7,1.3-2.3l-28-40.1  L59.3,74.4z"></path>	<path class="st0" d="M133.2,19.6v59.9c0.9,0.1,1.7,0.5,2.4,1.1l41.1-35.8c-0.3-0.4-0.6-0.9-0.7-1.5c-0.2-0.9-0.1-1.7,0.3-2.4  l-40.2-23c-0.5,0.8-1.3,1.3-2.2,1.5C133.6,19.5,133.4,19.5,133.2,19.6z"></path>	<path class="st0" d="M59.9,76.5c0,0.4-0.1,0.8-0.2,1.2l30.7,31.1l39.3-23.9c-0.1-0.3-0.3-0.6-0.3-0.9c-0.1-0.3-0.1-0.6-0.1-0.9  l-42.7-4L59.9,76.5z"></path>	<path class="st0" d="M129.9,85.3l-39.2,23.9l39.9,40.4c0.4-0.4,1-0.7,1.6-0.8c0.2,0,0.4-0.1,0.6-0.1l-0.1-61.8  C131.6,86.7,130.6,86.2,129.9,85.3z"></path>	<path class="st0" d="M9.8,83L9.8,83l22.5-48.2l-3.5-6.1c-0.2,0.1-0.5,0.2-0.8,0.3c-0.6,0.1-1.1,0.1-1.7,0L9.8,83z"></path>	<path class="st0" d="M54.7,73.2c0.2-0.1,0.5-0.2,0.8-0.3c0.2-0.1,0.5-0.1,0.7-0.1l2.7-91.5c-0.3,0-0.7-0.1-1-0.2l-25,53.6  L54.7,73.2z"></path>	<path class="st0" d="M7.7,82.8c0.6-0.1,1.1-0.1,1.7,0l16.6-54c-1.1-0.4-2-1.4-2.3-2.6l0,0L-94.6,45c0.1,0.6,0,1.3-0.2,1.9L5.1,85.1  C5.5,84,6.4,83.1,7.7,82.8z"></path>	<path class="st0" d="M-84.2,84.1c2-0.5,3.9,0.8,4.4,2.7c0,0.2,0.1,0.4,0.1,0.6l71.2-0.7l13.4-0.1c0-0.3,0-0.6,0.1-0.9L-95,47.3  c-0.4,0.8-1.2,1.5-2.1,1.8l12.6,35C-84.4,84.1-84.3,84.1-84.2,84.1z"></path>	<path class="st0" d="M-86.9,86.7c0.3-1,1-1.9,2.1-2.4l-12.7-35.1c-0.8,0.2-1.5,0.1-2.2-0.2l-13.7,32.1L-86.9,86.7z"></path>	<path class="st0" d="M-127.8,78l13.9,3l13.8-32.2c-0.2-0.1-0.5-0.3-0.7-0.5l-27.9,27.2c0.4,0.4,0.7,1,0.8,1.6  C-127.8,77.4-127.8,77.7-127.8,78z"></path>	<path class="st0" d="M57.5-19.1C57.5-19.1,57.4-19.1,57.5-19.1l-28,41.6c0.6,0.5,1.1,1.2,1.3,2.1c0.4,1.5-0.3,3.1-1.6,3.9l3.3,5.8  L57.5-19.1z"></path>	<path class="st1" d="M-207.4,287.9c2-0.5,3.2-2.4,2.7-4.4c0-0.2-0.1-0.3-0.1-0.4l106.4-47.8l0.1,0.1l0.1-0.3l0.9-0.4H-98l32.5-60.7  c0.7,0.3,1.5,0.4,2.4,0.2c1.6-0.4,2.7-1.7,2.8-3.3l54.3,0.6c0,0.2,0,0.4,0.1,0.6c0.5,2,2.4,3.2,4.4,2.7s3.2-2.4,2.7-4.4  c-0.1-0.4-0.2-0.7-0.4-1.1l60.7-42.2c0.8,1.1,2.3,1.7,3.7,1.3c1.1-0.3,2-1.1,2.5-2.1l61.8,24.6c-0.2,0.6-0.2,1.3-0.1,2  c0.5,2,2.4,3.2,4.4,2.7s3.2-2.4,2.7-4.4c-0.4-1.6-1.8-2.7-3.3-2.8l-0.1-61.8c0.2,0,0.4,0,0.6-0.1c2-0.5,3.2-2.4,2.7-4.4  c-0.1-0.5-0.4-1-0.7-1.4L177,45.1c0.9,0.8,2.1,1.2,3.4,0.9c2-0.5,3.2-2.4,2.7-4.4s-2.4-3.2-4.4-2.7c-0.9,0.2-1.7,0.8-2.2,1.5  l-40.2-23c0.4-0.7,0.5-1.6,0.3-2.4c-0.5-2-2.4-3.2-4.4-2.7c-1,0.2-1.8,0.9-2.3,1.7L62.7-20.8c0.3-0.7,0.4-1.5,0.2-2.3  c-0.5-2-2.4-3.2-4.4-2.7s-3.2,2.4-2.7,4.4c0.2,0.9,0.7,1.6,1.3,2.1L29.2,22.3c-0.8-0.5-1.7-0.6-2.7-0.4c-1.8,0.4-3,2.1-2.8,3.9  L-94.7,44.6v0.2l0,0c-0.5-2-2.4-3.2-4.4-2.7s-3.2,2.4-2.7,4.4c0.1,0.5,0.4,1,0.7,1.4L-129,75.1c-0.1-0.1-0.3-0.2-0.4-0.3l42-78.8  c0.7,0.3,1.5,0.4,2.3,0.2c2-0.5,3.2-2.4,2.7-4.4s-2.4-3.2-4.4-2.7c-1.2,0.3-2.2,1.2-2.6,2.3l-97.5-29.1c0.1-0.5,0.1-1,0-1.5  c-0.5-2-2.4-3.2-4.4-2.7c-1.8,0.4-2.9,2.1-2.8,3.8l-47.4,8.6c-0.5-1.9-2.4-3.1-4.4-2.7c-2,0.5-3.2,2.4-2.7,4.4  c0.3,1.4,1.4,2.4,2.7,2.7l-6.3,36.8c-0.4,0-0.7,0-1.1,0.1c-2,0.5-3.2,2.4-2.7,4.4s2.4,3.2,4.4,2.7c0,0,0,0,0.1,0l17,46.8  c-1.7,0.6-2.7,2.4-2.2,4.2c0.1,0.6,0.4,1.1,0.8,1.5l-35.3,33.5c-0.9-0.8-2.1-1.2-3.3-0.9c-2,0.5-3.2,2.4-2.7,4.4s2.4,3.2,4.4,2.7  c0.5-0.1,0.9-0.3,1.3-0.6l28.1,33.7c-0.9,0.9-1.4,2.2-1,3.5c0.2,1,0.8,1.8,1.6,2.3l-29.2,54.5c-0.7-0.3-1.5-0.4-2.3-0.2  c-2,0.5-3.2,2.4-2.7,4.4s2.4,3.2,4.4,2.7c1.3-0.3,2.2-1.2,2.6-2.4l85.9,22.9c-0.1,0.5-0.1,1,0,1.5c0,0.1,0.1,0.3,0.1,0.4l-22.8,47  c-0.7-0.3-1.4-0.4-2.2-0.2c-2,0.5-3.2,2.4-2.7,4.4C-211.3,287.1-209.3,288.4-207.4,287.9z M-98.8,234.7l-78.2-2.2  c0-0.2,0-0.5-0.1-0.7c-0.1-0.2-0.1-0.5-0.2-0.7l54.1-28.7L-98.8,234.7z M-211.8,116.7c0.7,0.4,1.6,0.6,2.5,0.4l27.6,111.9l-0.1,0.2  c-0.3,0.1-0.5,0.2-0.8,0.4l-53.9-76.2L-211.8,116.7z M-212.6,116.1l-26.3,28c-0.5-0.4-1.1-0.7-1.7-0.8l3.3-32.1l23.8,2.2  c0,0.3,0,0.6,0.1,0.9C-213.4,115.1-213,115.6-212.6,116.1z M-208.8,117.1c0.5-0.2,0.9-0.4,1.3-0.7l53.8,55.7l-25.5,57.2  c-0.6-0.2-1.2-0.3-1.9-0.2L-208.8,117.1z M-208,110.5l25.8-49c0.7,0.3,1.5,0.4,2.3,0.2c0.3-0.1,0.7-0.2,1-0.4l19.1,29.2l-46.9,21.3  C-207,111.3-207.5,110.8-208,110.5z M-177.9,230.2l37.6-39.3c0.9,0.7,2,1,3.2,0.8c1.8-0.4,3-2.1,2.8-3.9l10.8,14.2l-54,28.7  C-177.6,230.5-177.7,230.3-177.9,230.2z M-178.9,229.4l25.5-57l12.7,13.1c-0.8,0.9-1.1,2.1-0.9,3.3c0.1,0.6,0.5,1.2,0.9,1.6  l-37.4,39.2l-0.1,0.2C-178.4,229.7-178.6,229.5-178.9,229.4z M-138.8,184.5c-0.6,0.1-1.1,0.4-1.5,0.8l-12.9-13.3l17.6-39.3  c0.3,0.1,0.5,0.2,0.8,0.2l-3.2,51.5C-138.3,184.4-138.5,184.4-138.8,184.5z M-134.3,132.9c0.3,0,0.5,0,0.8-0.1  c1-0.2,1.8-0.9,2.3-1.7l18.1,10.7l-23.3,42.9c-0.3-0.2-0.7-0.3-1.1-0.3L-134.3,132.9z M-131,130.7c0.3-0.7,0.4-1.5,0.2-2.3  c-0.1-0.5-0.3-0.9-0.6-1.3l45.3-36.9c0.2,0.2,0.5,0.4,0.7,0.6l-27.5,50.6L-131,130.7z M-131.7,81.6l-3.1,44c-0.1,0-0.3,0-0.4,0.1  c-0.3,0.1-0.7,0.2-1,0.4l-23-35.3l24.5-11.1C-134.1,80.7-132.9,81.5-131.7,81.6z M-131.8,126.6c-0.3-0.3-0.6-0.5-0.9-0.6l19-44.4  l26.6,5.6c-0.1,0.4-0.1,0.9,0.1,1.4c0.1,0.5,0.3,0.9,0.6,1.3L-131.8,126.6z M-133.1,125.8c-0.4-0.1-0.8-0.2-1.2-0.2l3.1-44  c0.2,0,0.4,0,0.6-0.1c1.5-0.3,2.5-1.6,2.8-3l13.7,2.9L-133.1,125.8z M-135,78.7c0,0.2,0.1,0.3,0.1,0.5l-24.5,11.2l-19.1-29.3  c0.5-0.4,0.9-0.8,1.1-1.4l42.5,17C-135.1,77.4-135.2,78.1-135,78.7z M-159.6,91l23.1,35.3c-0.6,0.5-1.1,1.2-1.3,2l-68.5-14.2  c0.1-0.4,0-0.9-0.1-1.3c0-0.2-0.1-0.3-0.1-0.5L-159.6,91z M-138,128.7c-0.1,0.4,0,0.9,0.1,1.3c0.3,1.1,1,1.9,1.9,2.4l-17.5,39.2  l-53.7-55.6c0.4-0.4,0.7-0.9,0.8-1.5L-138,128.7z M-65.9,173.8l-32.5,60.8l-24.4-32.3l55.7-29.6C-66.7,173.1-66.3,173.5-65.9,173.8  z M-67.3,172.2l-55.8,29.6l-10.9-14.5l66.6-15.6C-67.4,171.9-67.3,172-67.3,172.2z M-67.5,171.3l-67,15.7c-0.3-0.9-0.8-1.6-1.5-2  l23.3-43l45.5,27C-67.5,169.7-67.7,170.5-67.5,171.3z M-65,167.2c-0.8,0.2-1.5,0.8-2,1.4l-45.5-27L-84.9,91  c0.6,0.3,1.4,0.4,2.1,0.3L-65,167.2z M-82.3,91.2c0.5-0.1,0.9-0.4,1.3-0.7l45.5,47l-26.2,30.3c-0.8-0.6-1.8-0.9-2.8-0.7L-82.3,91.2  z M-80.7,90.1c0.6-0.6,0.9-1.4,0.9-2.3l84.7-0.9c0,0.1,0,0.2,0,0.3c0.2,0.8,0.6,1.5,1.2,1.9L-35.2,137L-80.7,90.1z M-6,171.1  l-54.3-0.6c0-0.2,0-0.4-0.1-0.6c-0.2-0.7-0.5-1.3-1-1.8l26.2-30.3L-5,168.9C-5.6,169.5-5.9,170.2-6,171.1z M-2.1,167.7  c-0.3,0-0.7,0-1.1,0.1c-0.6,0.1-1.1,0.4-1.5,0.8l-30.2-31.2L6.5,89.5c0.4,0.3,0.9,0.5,1.4,0.6l-3.1,23.7L-2.1,167.7z M-1.6,167.7  l0.6-4.3L8.4,90c0.3,0,0.6,0,1-0.1c0.8-0.2,1.4-0.6,1.9-1.1L38,107.1l-38.5,61C-0.9,167.9-1.2,167.8-1.6,167.7z M10.3,83.2  l22.4-47.9l21.6,38.2c-1.1,0.8-1.8,2.1-1.6,3.5l-40.5,8.8v-0.1C11.8,84.5,11.2,83.7,10.3,83.2z M64.2,121.4l-3.3-24.5l-2.3-17.4  c0.4-0.3,0.8-0.8,1-1.2L90,109l-22.7,13.8C66.6,121.9,65.4,121.3,64.2,121.4z M52.7,77.4c0.3,1.2,1.2,2.2,2.3,2.5l-16.9,26.8  L11.4,88.4c0.4-0.7,0.7-1.4,0.6-2.3L52.7,77.4z M60.8,125.9c0.1,0.4,0.2,0.7,0.4,1L0.5,169.1c-0.2-0.3-0.4-0.5-0.7-0.7l38.5-61  l23,15.7C60.8,123.9,60.6,124.9,60.8,125.9z M61.6,122.7l-23-15.7l17-26.9c0.5,0.1,1,0.1,1.6,0c0.3-0.1,0.6-0.2,0.9-0.4l3,22  l2.7,19.8h-0.1C62.8,121.6,62.1,122.1,61.6,122.7z M129.8,150.7L68,126.1c0.2-0.6,0.2-1.3,0.1-1.9c-0.1-0.3-0.2-0.6-0.4-0.9  l22.8-13.9l39.9,40.5C130.1,150.1,129.9,150.4,129.8,150.7z M132.8,148.6c-0.2,0-0.4,0-0.6,0.1c-0.6,0.1-1.1,0.4-1.6,0.8  l-39.9-40.4l39.2-23.9c0.6,0.9,1.7,1.5,2.8,1.6L132.8,148.6z M129.4,84c0.1,0.3,0.2,0.6,0.3,0.9l-39.3,23.9L59.7,77.7  c0.1-0.4,0.2-0.8,0.2-1.2L86.5,79l42.7,4C129.3,83.4,129.3,83.7,129.4,84z M129.3,82.6L59.9,76c0-0.1,0-0.2-0.1-0.4  c-0.1-0.5-0.3-0.9-0.6-1.2l43.3-34.3l28,40.1C129.9,80.9,129.5,81.7,129.3,82.6z M132.1,79.6c-0.4,0.1-0.7,0.2-1.1,0.4l-28-40.1  l27.2-21.5c0.6,0.7,1.5,1.1,2.5,1.2v59.9C132.5,79.5,132.3,79.5,132.1,79.6z M136,17.9l40.2,23c-0.4,0.7-0.5,1.6-0.3,2.4  c0.1,0.6,0.4,1.1,0.7,1.5l-41.1,35.8c-0.6-0.6-1.5-1-2.4-1.1V19.6c0.2,0,0.4,0,0.6-0.1C134.7,19.2,135.5,18.7,136,17.9z M62.4-20.4  l67.2,34.8c-0.3,0.7-0.4,1.5-0.2,2.3c0.1,0.5,0.3,0.9,0.6,1.2l-27.3,21.6L61.5-19.4C61.9-19.7,62.2-20,62.4-20.4z M59.4-18.6  c0.2,0,0.5,0,0.7-0.1c0.4-0.1,0.7-0.2,1.1-0.4l41.2,58.9L59,74c-0.6-0.7-1.5-1.1-2.4-1.2L59.4-18.6z M58.9-18.6l-2.7,91.5  c-0.2,0-0.5,0-0.7,0.1c-0.3,0.1-0.5,0.2-0.8,0.3L32.9,34.8l25-53.6C58.2-18.8,58.6-18.7,58.9-18.6z M30.9,24.6  c-0.2-0.9-0.7-1.6-1.3-2.1l27.9-41.6h0.1l-25,53.4l-3.3-5.8C30.6,27.6,31.2,26.1,30.9,24.6z M28.1,29c0.3-0.1,0.5-0.2,0.8-0.3  l3.5,6.1L9.8,83l0,0l16.6-54C27,29.1,27.6,29.1,28.1,29z M-94.6,45L23.8,26.2l0,0c0.3,1.2,1.2,2.2,2.3,2.6l-16.6,54  c-0.5-0.1-1.1-0.1-1.7,0c-1.2,0.3-2.2,1.2-2.6,2.3l-100-38.2C-94.6,46.3-94.5,45.7-94.6,45z M-95,47.3L5,85.6  c-0.1,0.3-0.1,0.6-0.1,0.9l-13.4,0.1l-71.2,0.7c0-0.2,0-0.4-0.1-0.6c-0.5-2-2.4-3.2-4.4-2.7c-0.1,0-0.1,0-0.2,0.1l-12.6-35  C-96.1,48.8-95.4,48.1-95,47.3z M-99.7,49c0.7,0.3,1.4,0.4,2.2,0.2l12.7,35.1c-1,0.4-1.8,1.3-2.1,2.4l-26.5-5.6L-99.7,49z   M-128.7,75.5l27.9-27.2c0.2,0.2,0.4,0.4,0.7,0.5L-113.9,81l-13.9-3c0-0.3,0-0.6-0.1-1C-128,76.5-128.3,75.9-128.7,75.5z   M-187.1-37.3l97.6,29.1c-0.1,0.5-0.1,1.1,0,1.7c0.2,1,0.8,1.8,1.6,2.3l-42,78.8c-0.7-0.3-1.5-0.4-2.3-0.2c-0.2,0-0.4,0.1-0.6,0.2  l-55.9-109.9C-187.9-35.7-187.3-36.4-187.1-37.3z M-190-34.8c0.1,0,0.2,0,0.3-0.1c0.2,0,0.4-0.1,0.6-0.2l55.8,109.9  c-0.6,0.4-1.1,0.9-1.4,1.6l-42.5-17c0.2-0.6,0.2-1.3,0.1-2c-0.4-1.7-2-2.9-3.7-2.8L-190-34.8z M-249,14.5c-0.3-1.4-1.5-2.5-2.8-2.7  l6.3-36.8c0.4,0,0.8,0,1.2-0.1c1.8-0.4,3-2.2,2.8-4l47.4-8.6v0.1c0.4,1.7,1.9,2.9,3.6,2.8l9.1,89.3c-0.1,0-0.2,0-0.2,0  c-0.9,0.2-1.7,0.8-2.2,1.5l-65.7-39C-249,16.3-248.8,15.4-249,14.5z M-251,18.6c0.6-0.3,1-0.7,1.4-1.1l65.7,39  c-0.4,0.7-0.5,1.6-0.3,2.5c0.2,1,0.8,1.8,1.7,2.3l-25.8,49c-0.7-0.3-1.5-0.4-2.3-0.2c-0.1,0-0.3,0.1-0.4,0.1L-251,18.6z   M-249.9,22.4l19.3,44.3c-0.9-1-2.3-1.5-3.6-1.2l0,0L-249.9,22.4z M-229.8,68.6l17,38.9l-18.6-35.4  C-230.2,71.4-229.6,70-229.8,68.6z M-233.4,72.8c0.3,0,0.6,0,0.9-0.1c0.3-0.1,0.5-0.2,0.8-0.3l19.9,38.1c-0.9,0.6-1.5,1.5-1.7,2.6  l-23.8-2.2L-233.4,72.8z M-270.4,106.8c-0.1-0.6-0.4-1.1-0.8-1.5l35.3-33.5c0.5,0.5,1.2,0.8,2,0.9l-3.9,38l-32.5-3  C-270.3,107.4-270.4,107.1-270.4,106.8z M-268.2,114.2l-3.3-3.9c0.6-0.6,1-1.3,1.1-2.1l32.5,3l-3.3,32.1c-0.3,0-0.6,0-1,0.1  c-0.5,0.1-0.9,0.3-1.3,0.6L-268.2,114.2z M-237.7,146.1c-0.2-0.6-0.5-1.2-0.9-1.7l26.3-28c0,0,0.1,0,0.1,0.1l-24.6,36.4l-2.2-3.1  C-237.9,148.9-237.4,147.5-237.7,146.1z M-242.8,150.3c0.7,0.3,1.5,0.4,2.3,0.2c0.4-0.1,0.8-0.2,1.1-0.4l2.3,3.3l-34.1,50.6  L-242.8,150.3z M-269.9,208.5c0.1-0.5,0.1-1,0-1.5c-0.2-0.9-0.7-1.6-1.3-2.1l34.5-51.2l53.8,76.1c-0.5,0.4-0.9,1-1.2,1.7  L-269.9,208.5z M-206.4,281.1l22.6-46.7c0.8,1.4,2.4,2.1,4,1.7c1.6-0.4,2.7-1.7,2.8-3.2l77.6,2.2L-205,282.6  C-205.3,282-205.8,281.5-206.4,281.1z"></path></g><g>	<path class="st0" d="M455.9-10.8c0.9,0,1.7-0.4,2.4-1l50.3,46.9c-0.5,0.6-0.8,1.4-0.8,2.1l-53,0.8L455.9-10.8z"></path>	<path class="st0" d="M453.5,96.1l1.3-57.6l52.9-0.8c0.1,0.8,0.4,1.6,1,2.2l-53.2,57C454.9,96.5,454.2,96.2,453.5,96.1z"></path>	<path class="st0" d="M358.9,16.9c0.3-0.3,0.6-0.7,0.7-1.1L426,37.6c-0.2,0.8-0.1,1.6,0.2,2.4l-37.5,19l-30.1-41.8  C358.7,17.1,358.8,17,358.9,16.9z"></path>	<path class="st0" d="M513.2-35.1l-2,68.9c-0.6,0-1.1,0.2-1.6,0.4L476-19.2L513.2-35.1z"></path>	<path class="st0" d="M359.8,13.6L434-7.9l-4.2,42.7c-1,0-2.1,0.4-2.8,1.2c-0.3,0.3-0.6,0.7-0.7,1.1l-66.5-21.8  C360,14.7,360,14.1,359.8,13.6z"></path>	<path class="st0" d="M475.5-19l33.7,53.5c-0.1,0.1-0.2,0.2-0.4,0.3l-50-46.7L475.5-19z"></path>	<path class="st0" d="M529.6,144.1c-0.1,0.1-0.1,0.1-0.2,0.2l-73-42.9c0.4-0.8,0.5-1.6,0.3-2.4l62.8-18.1l12.1,62.1  C530.8,143.1,530.1,143.5,529.6,144.1z"></path>	<path class="st0" d="M511.8,41.1l7.6,39.4l-62.8,18.1c-0.2-0.5-0.4-0.9-0.8-1.3l53.2-57C509.8,41,510.8,41.2,511.8,41.1z"></path>	<path class="st0" d="M597.6,143.6l-12.1,15.8L572,177c-0.2-0.3-0.4-0.5-0.6-0.8c-0.4-0.4-0.9-0.6-1.3-0.8l-1.3-31.8l27.8-2.2  C596.5,142.3,596.9,143,597.6,143.6C597.5,143.6,597.5,143.6,597.6,143.6z"></path>	<path class="st0" d="M512.3,41c0.6-0.2,1.3-0.5,1.7-1c0.1-0.2,0.3-0.3,0.4-0.5L561.8,66c-0.4,0.7-0.4,1.6-0.3,2.4l-41.7,12  L512.3,41z"></path>	<path class="st0" d="M565.5,71.2c0.3,0,0.6-0.1,1-0.2l31.7,66.8c-0.3,0.2-0.6,0.4-0.8,0.7c-0.7,0.7-1,1.7-1,2.6l-27.7,2.2  L565.5,71.2z"></path>	<path class="st0" d="M535.9,146.3l32.2-2.6l1.3,31.6c-1.2-0.2-2.4,0.1-3.3,1l-30.8-27.7C535.8,147.9,536,147.1,535.9,146.3z"></path>	<path class="st0" d="M535,149l30.8,27.8c-0.8,1.1-0.9,2.6-0.3,3.8l-37.7,22.3l4.4-52.7C533.2,150.2,534.2,149.8,535,149  C535,149.1,535,149,535,149z"></path>	<path class="st0" d="M533.6,143.2c-0.5-0.2-1-0.3-1.5-0.2L520,80.8l41.7-12c0.2,0.5,0.5,1,0.9,1.4c0.3,0.3,0.6,0.5,0.9,0.6  L542.7,121L533.6,143.2z"></path>	<path class="st0" d="M535.9,145.9c-0.1-0.7-0.5-1.4-1.1-1.9c-0.2-0.2-0.5-0.4-0.8-0.6l28.3-68.3l1.7-4c0.4,0.1,0.7,0.2,1.1,0.2  l3.1,72.1L535.9,145.9z"></path>	<path class="st0" d="M614.2,167.5l-41.8,11.6c0-0.5-0.1-1.1-0.3-1.6l10.7-14l15.1-19.6c1.1,0.7,2.4,0.8,3.5,0.3L614.2,167.5z"></path>	<path class="st0" d="M440.4-70.7l-6.3,62.3l-74.4,21.5c-0.2-0.4-0.4-0.9-0.7-1.2l79.7-83.4C439.2-71.1,439.8-70.8,440.4-70.7z"></path>	<path class="st0" d="M357.4,75.5l31.2-15.9l15.8,21.9c-0.1,0.1-0.2,0.2-0.4,0.3c-0.5,0.5-0.8,1.1-0.9,1.8l-45.4-6.4  C357.7,76.7,357.7,76.1,357.4,75.5z"></path>	<path class="st0" d="M388.3,59.2l-31.1,15.9c-0.2-0.3-0.4-0.6-0.6-0.8c-0.6-0.6-1.4-0.9-2.1-1l2-55.3c0.6,0,1.3-0.2,1.8-0.6  L388.3,59.2z"></path>	<path class="st0" d="M437.7-72.6c0.1,0.2,0.3,0.5,0.5,0.7v0.2l-79.6,83.3c-0.7-0.6-1.5-0.9-2.4-0.9l-3.2-44L437.7-72.6z"></path>	<path class="st0" d="M443.1-71.4c0.2-0.1,0.4-0.3,0.5-0.5c0.2-0.2,0.3-0.4,0.4-0.6l68.9,36.9l-37.2,15.9L443.1-71.4z"></path>	<path class="st0" d="M475.2-19.4l-16.5,7.1c1-1.5,0.9-3.5-0.5-4.8c-0.9-0.8-2-1.1-3.1-0.9l-13-52.8c0.2-0.1,0.4-0.2,0.6-0.3  L475.2-19.4z"></path>	<path class="st0" d="M353,12.6l-21.7-9.9l13.1-29.5c0.6,0.2,1.3,0.3,1.9,0.2l8.9,37.4c-0.6,0.2-1.1,0.5-1.6,1  C353.4,12.1,353.2,12.4,353,12.6z"></path>	<path class="st0" d="M453,96.1c-0.3,0-0.6,0.1-0.9,0.2l-20.9-54.6c0.4-0.2,0.8-0.5,1.1-0.8c0.6-0.6,0.9-1.3,1-2.1l21-0.3L453,96.1z  "></path>	<path class="st0" d="M450.5,97.3c-0.3,0.3-0.6,0.7-0.7,1.2l-25.9-8.4l5.6-48c0.4,0,0.7,0,1.1-0.1l21.1,54.5  C451.2,96.7,450.8,96.9,450.5,97.3z"></path>	<path class="st0" d="M409.1,81.7c-0.2-0.2-0.3-0.3-0.5-0.4l19.2-39.7c0.4,0.2,0.7,0.3,1.1,0.4l-5.6,47.9l-13.2-4.3  C410.6,84.3,410.3,82.7,409.1,81.7z"></path>	<path class="st0" d="M441.7-70.5l13,52.6c-0.6,0.2-1.1,0.5-1.6,1c-0.9,0.9-1.1,2.2-0.9,3.3l-17.5,5.1l6.3-62.1c0.3,0,0.5,0,0.8-0.1  L441.7-70.5z"></path>	<path class="st0" d="M431,35c-0.3-0.1-0.5-0.2-0.8-0.2l4.3-42.9l17.7-5.1c0.2,0.5,0.5,1,0.9,1.4c0.2,0.2,0.4,0.4,0.7,0.5L431,35z"></path>	<path class="st0" d="M454.3,38l-21,0.3c0-1-0.4-1.9-1.2-2.6c-0.2-0.2-0.4-0.4-0.7-0.5l22.9-46.3c0.3,0.1,0.7,0.2,1.1,0.3L454.3,38z  "></path>	<path class="st0" d="M389,59.4l37.5-19.1c0.2,0.3,0.4,0.6,0.6,0.8c0.1,0.1,0.2,0.2,0.3,0.3l-19.2,39.7c-1.1-0.5-2.5-0.5-3.5,0.2  L389,59.4z"></path>	<path class="st0" d="M316.7,43.5c0.8-1.1,1-2.6,0.4-3.8l33.7-21.6L316.7,43.5z"></path>	<path class="st0" d="M315.1,44.7l-38.9,28.9l35-29.6l0,0C312.3,44.9,313.8,45.2,315.1,44.7z"></path>	<path class="st0" d="M315.2,37.9c-0.7-0.3-1.5-0.3-2.2-0.2L299-8.9c0.5-0.2,1-0.5,1.4-0.9c0.2-0.2,0.4-0.5,0.5-0.8L330.6,3  L315.2,37.9z"></path>	<path class="st0" d="M404.1,87c0.6,0.6,1.4,0.9,2.2,1l-2.6,89.3c-0.9,0-1.9,0.4-2.5,1.2c-0.4,0.4-0.7,0.9-0.8,1.4l-99.3-23.3  c0.2-0.9,0-1.8-0.4-2.5l103-67.5C403.8,86.7,404,86.9,404.1,87z"></path>	<path class="st0" d="M356.7,79.5c0.5-0.5,0.8-1.1,0.9-1.8l45.4,6.4c-0.1,0.7,0.1,1.4,0.5,2.1l-103,67.5c-0.1-0.2-0.3-0.3-0.4-0.5  c-0.1-0.1-0.1-0.1-0.2-0.2l52.3-72.9C353.6,81,355.5,80.8,356.7,79.5z"></path>	<path class="st0" d="M351.6,79.7c0.1,0.1,0.1,0.1,0.2,0.2l-52.3,73c-1.5-0.9-3.4-0.6-4.6,0.6c0,0,0,0.1-0.1,0.1l-36.8-31  c1.1-1.5,0.9-3.6-0.4-4.9c-0.3-0.3-0.7-0.5-1-0.7l12.8-35.1c1.3,0.4,2.8,0.1,3.8-1c0.6-0.7,1-1.6,1-2.4l76.4-1.2  C350.5,78.2,350.9,79,351.6,79.7z"></path>	<path class="st0" d="M353.8,17c0.6,0.6,1.4,0.9,2.1,1l-2,55.3c-0.9,0-1.9,0.4-2.6,1.2c-0.6,0.7-0.9,1.5-1,2.3L273.9,78  c-0.1-0.6-0.3-1.2-0.6-1.7l80.1-59.5C353.6,16.8,353.7,16.9,353.8,17z"></path>	<path class="st0" d="M352.8,13.1c-0.4,1-0.3,2.1,0.2,3.1l-36.2,23.1c-0.2-0.2-0.3-0.4-0.5-0.6s-0.5-0.4-0.7-0.5l15.5-34.9  L352.8,13.1z"></path>	<path class="st0" d="M601.9,144c0.3-0.2,0.5-0.4,0.8-0.6c0.5-0.5,0.8-1.1,0.9-1.7l65.9,9.4c0,0.3,0,0.7,0.1,1l-54.8,15.2L601.9,144  z"></path>	<path class="st0" d="M444.3-72.8c0.6-1.4,0.3-3.1-0.8-4.2c-1.2-1.1-3-1.3-4.4-0.5l3.6-51.8c0.7,0,1.4-0.2,2-0.6l68,93.7L444.3-72.8  z"></path>	<path class="st0" d="M355.8,10.7L355.8,10.7l-9-37.4c0.6-0.2,1.1-0.5,1.6-1c1-1.1,1.2-2.6,0.7-3.8l3.5-1.6L355.8,10.7z"></path>	<path class="st0" d="M344-26.9L330.9,2.6l-29.7-13.5c0.3-0.8,0.3-1.6,0.1-2.4l4.8-1.8l36.3-13.5c0.2,0.4,0.5,0.8,0.8,1.2  C343.4-27.3,343.7-27.1,344-26.9z"></path>	<path class="st0" d="M437.5-73L353-33.8l-4.5-61.6c0.8-0.1,1.6-0.5,2.2-1.1c0.4-0.4,0.6-0.9,0.8-1.3L437.4-75  C437.2-74.4,437.3-73.7,437.5-73z"></path>	<path class="st0" d="M348.9-31.9c-0.2-0.3-0.4-0.6-0.7-0.9c-0.6-0.6-1.4-0.9-2.1-1l2-60.8l4.5,61L348.9-31.9z"></path>	<path class="st0" d="M603.6,266.3c-0.4,0.2-0.8,0.5-1.1,0.8c-0.6,0.6-0.9,1.3-1,2.1l-75.6-3.2c0-0.4-0.1-0.9-0.3-1.3l65-30.6  L603.6,266.3z"></path>	<path class="st0" d="M604,266.2L591.1,234l44.3-20.9c0.2,0.3,0.4,0.6,0.7,0.9c0.2,0.1,0.3,0.3,0.5,0.4l-29.8,52  C605.9,265.9,604.9,265.9,604,266.2z"></path>	<path class="st0" d="M569.9,182.4l20.5,51.3l-65.1,30.6c-0.2-0.3-0.4-0.6-0.7-0.9c-0.2-0.2-0.4-0.3-0.6-0.4l43.1-80.7  C568.1,182.7,569.1,182.7,569.9,182.4z"></path>	<path class="st0" d="M570.4,182.2c0.4-0.2,0.8-0.5,1.1-0.8c0.1-0.1,0.2-0.2,0.2-0.3l63.5,28.9c-0.3,0.9-0.3,1.8,0,2.6l-44.3,20.9  L570.4,182.2z"></path>	<path class="st0" d="M607.2,266.6l29.8-52c0.8,0.4,1.7,0.5,2.6,0.2l17.9,51.5c-0.5,0.2-1,0.5-1.4,0.9c-0.6,0.6-0.9,1.4-1,2.3  l-46.3-0.1c-0.1-0.9-0.4-1.8-1.2-2.4C607.5,266.8,607.3,266.7,607.2,266.6z"></path>	<path class="st0" d="M572,180.8c0.2-0.4,0.3-0.7,0.4-1.1l42.1-11.7l22.2,40.3c-0.3,0.2-0.5,0.4-0.7,0.6c-0.2,0.2-0.4,0.5-0.5,0.8  l-39-17.8L572,180.8z"></path>	<path class="st0" d="M637.1,208L615,167.8l54.7-15.2c0.2,0.5,0.5,1.1,1,1.5c0.1,0.1,0.3,0.3,0.5,0.4l-30.8,53.6  C639.2,207.5,638,207.5,637.1,208z"></path>	<path class="st0" d="M531.7,150.2L531.7,150.2l-4.4,53l-6,3.6c-0.1-0.2-0.3-0.4-0.5-0.6c-0.4-0.4-0.9-0.7-1.5-0.8L531.7,150.2z"></path>	<path class="st0" d="M565.8,181c0.1,0.2,0.3,0.4,0.5,0.6c0.2,0.2,0.4,0.3,0.6,0.4l-43.1,80.7c-0.3-0.1-0.6-0.2-1-0.3l5-59  L565.8,181z"></path>	<path class="st0" d="M529.8,149.3c0.4,0.4,0.9,0.7,1.5,0.8l-12.5,55.1c-1.2-0.2-2.4,0.2-3.3,1.1l0,0l-93.3-75.2  c0.4-0.5,0.7-1.1,0.8-1.7l105.7,16.5C528.5,147.2,528.8,148.4,529.8,149.3z"></path>	<path class="st0" d="M450.7,102.5c1.5,1.4,3.8,1.3,5.2-0.2c0.1-0.1,0.2-0.3,0.4-0.4l61.4,36l11.6,6.8c-0.2,0.3-0.3,0.6-0.4,0.9  L423,129c0-0.9-0.3-1.8-0.9-2.6l28.4-24.1C450.6,102.4,450.6,102.4,450.7,102.5z"></path>	<path class="st0" d="M449.6,98.9c-0.3,1-0.1,2.2,0.6,3.1l-28.4,24.1c-0.6-0.5-1.3-0.8-2-0.9l4-34.6L449.6,98.9z"></path>	<path class="st0" d="M409.9,86.1l13.5,4.4l-4,34.8c-0.3,0-0.6,0-0.9,0.1l-10.7-37.6c0.6-0.2,1.1-0.5,1.5-1  C409.5,86.6,409.7,86.4,409.9,86.1z"></path>	<path class="st0" d="M522.3,262.5C522.3,262.5,522.2,262.5,522.3,262.5l-3.6-50c0.8-0.1,1.6-0.5,2.2-1.1c1.1-1.2,1.3-2.8,0.6-4.2  l5.7-3.4L522.3,262.5z"></path>	<path class="st1" d="M440-135.4c-1.4,1.5-1.3,3.8,0.2,5.2c0.6,0.5,1.3,0.9,2,0.9l-3.6,52.1c-0.1,0.1-0.2,0.2-0.3,0.3  c-0.4,0.4-0.6,0.9-0.8,1.3l-85.9-22.8c0.2-1.2-0.1-2.5-1.1-3.4c-1.5-1.4-3.8-1.3-5.2,0.2s-1.3,3.8,0.2,5.2c0.6,0.6,1.4,0.9,2.1,1  l-2.1,61.6c-0.9,0-1.9,0.4-2.6,1.2c-0.9,1-1.2,2.3-0.8,3.6L301-13.7c-0.2-0.4-0.5-0.8-0.8-1.2c-1.5-1.4-3.8-1.3-5.2,0.2  c-1.4,1.5-1.3,3.8,0.2,5.2c0.9,0.9,2.2,1.2,3.3,0.9l14,46.6c-0.5,0.2-1,0.5-1.4,0.9c-1.3,1.4-1.3,3.4-0.2,4.8l-38,32.2l0,0  c-1.5-1.4-3.8-1.3-5.2,0.2c-1.4,1.5-1.3,3.8,0.2,5.2c0.3,0.3,0.6,0.5,0.9,0.6L256,117c-1.3-0.4-2.7,0-3.7,1  c-1.4,1.5-1.3,3.8,0.2,5.2c1.5,1.4,3.8,1.3,5.1-0.1l36.8,31c-1,1.5-0.8,3.5,0.5,4.7c1.5,1.4,3.8,1.3,5.2-0.2  c0.4-0.4,0.6-0.8,0.8-1.3l99.2,23.3c-0.2,1.2,0.2,2.4,1.1,3.3c1.5,1.4,3.8,1.3,5.2-0.2s1.3-3.8-0.2-5.2c-0.6-0.6-1.4-0.9-2.2-1  l2.6-89.3c0.2,0,0.4,0,0.6-0.1l10.7,37.5c-0.5,0.2-0.9,0.5-1.3,0.9c-1.4,1.5-1.3,3.8,0.2,5.2s3.8,1.3,5.2-0.2l0,0l-0.1,0.2  l93.3,75.2c-1,1.5-0.9,3.5,0.5,4.8c0.7,0.7,1.6,1,2.5,1l3.5,50c-0.8,0.1-1.6,0.5-2.2,1.1c-1.4,1.5-1.3,3.8,0.2,5.2s3.8,1.3,5.2-0.2  c0.6-0.6,0.9-1.3,1-2.1l75.6,3.2c0,1,0.4,1.9,1.2,2.6c1.5,1.4,3.8,1.3,5.2-0.2c0.6-0.6,0.9-1.4,1-2.3l46.3,0.1  c0.1,0.9,0.4,1.8,1.2,2.4c1.5,1.4,3.8,1.3,5.2-0.2s1.3-3.8-0.2-5.2c-0.9-0.9-2.2-1.2-3.4-0.9l-17.9-51.5c0.5-0.2,0.9-0.5,1.3-0.9  c1.4-1.5,1.3-3.8-0.2-5.2c-0.1-0.1-0.3-0.3-0.5-0.4l30.8-53.6c1.4,0.7,3.2,0.4,4.3-0.8c1.4-1.5,1.3-3.8-0.2-5.2s-3.8-1.3-5.2,0.2  c-0.5,0.5-0.8,1.1-0.9,1.7l-65.9-9.4c0.1-1.1-0.3-2.2-1.1-3c-1.1-1-2.6-1.2-3.9-0.7L567,70.6c0.3-0.2,0.6-0.4,0.9-0.7  c1.4-1.5,1.3-3.8-0.2-5.2c-1.5-1.4-3.8-1.3-5.2,0.2c-0.1,0.2-0.3,0.3-0.4,0.5l-47.4-26.5c0.7-1.4,0.4-3.1-0.8-4.3  c-0.6-0.6-1.4-0.9-2.2-1l2-68.9l0.6,0.3l-0.6-0.8v-0.3l-0.2,0.1L445-130.4c0.1-0.1,0.2-0.2,0.3-0.3c1.4-1.5,1.3-3.8-0.2-5.2  C443.7-137,441.4-136.9,440-135.4z M475.7-19.6l-32.6-51.8c0.2-0.1,0.4-0.3,0.5-0.5c0.2-0.2,0.3-0.4,0.4-0.6l68.9,36.9L475.7-19.6z   M353-33.3l84.7-39.3c0.1,0.2,0.3,0.5,0.5,0.7v0.2l-79.6,83.3c-0.7-0.6-1.5-0.9-2.4-0.9L353-33.3z M353.6,11.9  c-0.2,0.2-0.4,0.5-0.5,0.8l-21.7-9.9l13.1-29.5c0.6,0.2,1.3,0.3,1.9,0.2l8.9,37.4C354.6,11.1,354,11.4,353.6,11.9z M438.6-71.5  c0.5,0.4,1.1,0.7,1.7,0.8l-6.2,62.3l-74.4,21.5c-0.2-0.4-0.4-0.9-0.7-1.2L438.6-71.5z M358.2,17.5l30.1,41.8l-31.1,15.9  c-0.2-0.3-0.4-0.6-0.6-0.8c-0.6-0.6-1.4-0.9-2.1-1l2-55.3C357,18,357.7,17.8,358.2,17.5z M442.7-71.1l32.5,51.7l-16.5,7.1  c1-1.5,0.9-3.5-0.5-4.8c-0.9-0.8-2-1.1-3.1-0.9l-13-52.8C442.3-70.9,442.5-71,442.7-71.1z M441.6-70.7l0.1,0.2l13,52.6  c-0.6,0.2-1.1,0.5-1.6,1c-0.9,0.9-1.1,2.2-0.9,3.3l-17.5,5.1l6.3-62.1C441.1-70.7,441.4-70.7,441.6-70.7z M453.9-11.3L431,35  c-0.3-0.1-0.5-0.2-0.8-0.2l4.3-42.9l17.7-5.1c0.2,0.5,0.5,1,0.9,1.4C453.4-11.6,453.7-11.4,453.9-11.3z M454.3-11.1  c0.3,0.1,0.7,0.2,1.1,0.3L454.3,38l-21,0.3c0-1-0.4-1.9-1.2-2.6c-0.2-0.2-0.4-0.4-0.7-0.5L454.3-11.1z M454.3,38.5L453,96.1  c-0.3,0-0.6,0.1-0.9,0.2l-20.9-54.6c0.4-0.2,0.8-0.5,1.1-0.8c0.6-0.6,0.9-1.3,1-2.1L454.3,38.5z M404.7,81.3L389,59.4l37.5-19.1  c0.2,0.3,0.4,0.6,0.6,0.8c0.1,0.1,0.2,0.2,0.3,0.3l-19.2,39.7C407.1,80.5,405.8,80.6,404.7,81.3z M451.6,96.5  c-0.4,0.2-0.8,0.5-1.1,0.8c-0.3,0.3-0.6,0.7-0.7,1.2l-25.9-8.4l5.6-48c0.4,0,0.7,0,1.1-0.1L451.6,96.5z M423.4,89.9l-13.3-4.3  c0.5-1.3,0.2-2.9-0.9-4c-0.2-0.2-0.3-0.3-0.5-0.4l19.1-39.6c0.4,0.2,0.7,0.3,1.1,0.4L423.4,89.9z M403.1,83.6l-45.4-6.4  c0-0.6-0.1-1.2-0.3-1.7l31.2-15.9l15.8,21.9c-0.1,0.1-0.2,0.2-0.4,0.3C403.5,82.4,403.2,83,403.1,83.6z M358.6,17.2  c0.1-0.1,0.2-0.2,0.4-0.3c0.3-0.3,0.6-0.7,0.7-1.1l66.4,21.8c-0.2,0.8-0.1,1.6,0.2,2.4l-37.6,19L358.6,17.2z M359.8,15.3  c0.1-0.6,0.2-1.1,0-1.7L434-7.9l-4.2,42.7c-1,0-2.1,0.4-2.8,1.2c-0.3,0.3-0.6,0.7-0.7,1.1L359.8,15.3z M509.6,34.2L476-19.2  l37.3-15.9l-2,68.9C510.6,33.8,510.1,34,509.6,34.2z M508.8,34.8l-50-46.7l16.7-7.1l33.7,53.5C509.1,34.6,508.9,34.7,508.8,34.8z   M507.7,37.3L454.8,38l1.1-48.8c0.9,0,1.7-0.4,2.4-1l50.3,46.9C508,35.8,507.7,36.5,507.7,37.3z M455.5,97c-0.6-0.5-1.3-0.8-2-0.8  l1.3-57.6l52.9-0.8c0.1,0.8,0.4,1.6,1,2.2L455.5,97z M509,40.3c0.8,0.7,1.8,0.9,2.8,0.8l7.6,39.4l-62.8,18.1  c-0.2-0.5-0.4-0.9-0.8-1.3L509,40.3z M519.5,80.9l12.1,62.1c-0.7,0.1-1.4,0.5-2,1.1c-0.1,0.1-0.1,0.1-0.2,0.2l-73-42.9  c0.4-0.8,0.5-1.6,0.3-2.4L519.5,80.9z M561.6,68.3l-41.7,12L512.3,41c0.6-0.2,1.3-0.5,1.7-1c0.1-0.2,0.3-0.3,0.4-0.5L561.8,66  C561.5,66.7,561.4,67.5,561.6,68.3z M542.7,121l-9.2,22.1c-0.5-0.2-1-0.3-1.5-0.2l-12.1-62.2l41.7-12c0.2,0.5,0.5,1,0.9,1.4  c0.3,0.3,0.6,0.5,0.9,0.6L542.7,121z M565,71.2l3.1,72.1l-32.2,2.6c-0.1-0.7-0.5-1.4-1.1-1.9c-0.2-0.2-0.5-0.4-0.8-0.6l28.3-68.3  l1.7-4C564.3,71.1,564.7,71.2,565,71.2z M534.9,149.1l0.1-0.1l30.8,27.8c-0.8,1.1-0.9,2.6-0.3,3.8l-37.7,22.3l4.4-52.7  C533.2,150.3,534.2,149.9,534.9,149.1z M601.5,144.2l12.8,23.3l-41.8,11.6c0-0.5-0.1-1.1-0.3-1.6l10.7-14l15.1-19.6  C599,144.6,600.3,144.7,601.5,144.2z M535.3,148.6c0.5-0.7,0.7-1.5,0.6-2.3l32.2-2.6l1.3,31.6c-1.2-0.2-2.4,0.1-3.3,1L535.3,148.6z   M596.3,141l-27.7,2.2l-3.1-72.1c0.3,0,0.6-0.1,1-0.2l31.7,66.8c-0.3,0.2-0.6,0.4-0.8,0.7C596.6,139.1,596.3,140.1,596.3,141z   M597.5,143.6L597.5,143.6l-12.1,15.9l-13.5,17.6c-0.2-0.3-0.4-0.5-0.6-0.8c-0.4-0.4-0.9-0.6-1.3-0.8l-1.3-31.8l27.8-2.2  C596.5,142.3,596.9,143,597.5,143.6z M669.5,152.1l-54.8,15.2l-12.8-23.4c0.3-0.2,0.5-0.4,0.8-0.6c0.5-0.5,0.8-1.1,0.9-1.7  l65.9,9.4C669.4,151.5,669.4,151.8,669.5,152.1z M640.2,208c-1-0.5-2.2-0.5-3.2,0l-22.1-40.2l54.7-15.2c0.2,0.5,0.5,1.1,1,1.5  c0.1,0.1,0.3,0.3,0.5,0.4L640.2,208z M635.4,209.6l-39-17.8L572,180.7c0.2-0.4,0.3-0.7,0.4-1.1l42.1-11.7l22.2,40.3  c-0.3,0.2-0.5,0.4-0.7,0.6C635.7,209,635.5,209.3,635.4,209.6z M635.2,212.6l-44.3,20.9l-20.5-51.3c0.4-0.2,0.8-0.5,1.1-0.8  c0.1-0.1,0.2-0.2,0.2-0.3l63.5,28.9C634.9,210.9,634.9,211.8,635.2,212.6z M636.6,214.4l-29.8,52c-0.9-0.4-1.9-0.5-2.8-0.2  L591.1,234l44.3-20.9c0.2,0.3,0.4,0.6,0.7,0.9C636.3,214.1,636.4,214.2,636.6,214.4z M607.6,267c-0.2-0.1-0.3-0.3-0.5-0.4l29.8-52  c0.8,0.4,1.7,0.5,2.6,0.2l17.9,51.5c-0.5,0.2-1,0.5-1.4,0.9c-0.6,0.6-0.9,1.4-1,2.3l-46.3-0.1C608.7,268.5,608.3,267.6,607.6,267z   M525.6,264.8l65-30.6l12.9,32.2c-0.4,0.2-0.8,0.5-1.1,0.8c-0.6,0.6-0.9,1.3-1,2.1l-75.6-3.2C525.9,265.6,525.8,265.2,525.6,264.8z   M567.3,182.3c0.8,0.4,1.8,0.4,2.7,0.1l20.5,51.3l-65.1,30.6c-0.2-0.3-0.4-0.6-0.7-0.9c-0.2-0.2-0.4-0.3-0.6-0.4L567.3,182.3z   M522.8,262.5l5-59l38-22.5c0.1,0.2,0.3,0.4,0.5,0.6c0.2,0.2,0.4,0.3,0.6,0.4l-43.1,80.7C523.4,262.6,523.1,262.6,522.8,262.5z   M521.5,207.2l5.7-3.4l-4.9,58.7h-0.1l-3.5-50c0.8-0.1,1.6-0.5,2.2-1.1C522,210.2,522.2,208.5,521.5,207.2z M519.3,205.4l12.4-55.1  l0,0l-4.5,53l-6,3.6c-0.1-0.2-0.3-0.4-0.5-0.6C520.3,205.8,519.8,205.5,519.3,205.4z M423,129.5L528.7,146  c-0.2,1.2,0.2,2.4,1.1,3.3c0.4,0.4,0.9,0.7,1.5,0.8l-12.5,55.1c-1.2-0.2-2.4,0.2-3.3,1.1l0,0l-93.3-75.2  C422.6,130.7,422.9,130.1,423,129.5z M422.1,126.4l28.4-24.1l0.1,0.1c1.5,1.4,3.8,1.3,5.2-0.2c0.1-0.1,0.2-0.3,0.4-0.4l61.4,36  l11.6,6.8c-0.2,0.3-0.3,0.6-0.4,0.9L423,129C423.1,128.1,422.8,127.2,422.1,126.4z M423.8,90.6l25.8,8.3c-0.3,1-0.1,2.2,0.6,3.1  l-28.4,24.1c-0.6-0.5-1.3-0.8-2-0.9L423.8,90.6z M409.3,86.9c0.2-0.2,0.4-0.5,0.6-0.8l13.5,4.4l-4,34.8c-0.3,0-0.6,0-0.9,0.1  l-10.7-37.6C408.4,87.7,408.9,87.3,409.3,86.9z M300.7,154.1l103-67.5c0.1,0.2,0.3,0.3,0.4,0.5c0.6,0.6,1.4,0.9,2.2,1l-2.6,89.3  c-0.9,0-1.9,0.4-2.5,1.2c-0.4,0.4-0.7,0.9-0.8,1.4l-99.3-23.4C301.3,155.8,301.1,154.9,300.7,154.1z M352.1,80.1  c1.5,0.9,3.4,0.7,4.6-0.6c0.5-0.5,0.8-1.1,0.9-1.8l45.4,6.4c-0.1,0.7,0.1,1.4,0.5,2.1l-103,67.5c-0.1-0.2-0.3-0.3-0.4-0.5  c-0.1-0.1-0.1-0.1-0.2-0.2L352.1,80.1z M274.1,78.4l76.4-1.2c0.1,0.9,0.5,1.7,1.1,2.4c0.1,0.1,0.1,0.1,0.2,0.2l-52.3,73  c-1.5-0.9-3.4-0.6-4.6,0.6c0,0,0,0.1-0.1,0.1l-36.8-31c1.1-1.5,0.9-3.6-0.4-4.9c-0.3-0.3-0.7-0.5-1-0.7l12.8-35.1  c1.3,0.4,2.8,0.1,3.8-1C273.7,80.2,274,79.3,274.1,78.4z M353.5,16.7c0.1,0.1,0.2,0.2,0.3,0.3c0.6,0.6,1.4,0.9,2.1,1l-2,55.3  c-0.9,0-1.9,0.4-2.6,1.2c-0.6,0.7-0.9,1.5-1,2.3L273.9,78c-0.1-0.6-0.3-1.2-0.6-1.7L353.5,16.7z M311.3,43.9  C311.3,43.9,311.3,44,311.3,43.9c1.1,1,2.5,1.2,3.8,0.8l-38.9,28.9L311.3,43.9z M317.1,39.7l33.7-21.6l-34.1,25.4  C317.6,42.4,317.7,40.9,317.1,39.7z M331.1,3.2l21.7,9.9c-0.4,1-0.3,2.1,0.2,3.1l-36.2,23.1c-0.2-0.2-0.3-0.4-0.5-0.6  s-0.5-0.4-0.7-0.5L331.1,3.2z M300.9-10.6L330.6,3l-15.5,34.9c-0.7-0.3-1.5-0.3-2.2-0.2l-14-46.6c0.5-0.2,1-0.5,1.4-0.9  C300.6-10,300.8-10.3,300.9-10.6z M342.3-28.7c0.2,0.4,0.5,0.8,0.8,1.2c0.2,0.2,0.5,0.4,0.8,0.6L330.8,2.6l-29.7-13.5  c0.3-0.8,0.3-1.6,0.1-2.4l4.8-1.8L342.3-28.7z M349.1-31.5l3.5-1.6l3.2,43.8h-0.1l-8.9-37.4c0.6-0.2,1.1-0.5,1.6-1  C349.4-28.7,349.6-30.2,349.1-31.5z M348.1-94.6l4.5,61l-3.6,1.7c-0.2-0.3-0.4-0.6-0.7-0.9c-0.6-0.6-1.4-0.9-2.1-1L348.1-94.6z   M437.3-75c-0.1,0.7-0.1,1.4,0.2,2L353-33.8l-4.5-61.6c0.8-0.1,1.6-0.5,2.2-1.1c0.4-0.4,0.6-0.9,0.8-1.3L437.3-75z M444.6-129.8  l68,93.7l-68.4-36.7c0.6-1.4,0.3-3.1-0.8-4.2c-1.2-1.1-3-1.3-4.4-0.5l3.6-51.8C443.4-129.2,444.1-129.4,444.6-129.8z"></path></g></svg>